<?xml version="1.0" encoding="utf-8"?>
<!-- Generator: Adobe Illustrator 22.1.0, SVG Export Plug-In . SVG Version: 6.00 Build 0)  -->
<svg version="1.1" id="Слой_1" xmlns="http://www.w3.org/2000/svg" xmlns:xlink="http://www.w3.org/1999/xlink" x="0px" y="0px"
	 viewBox="0 0 664.7 518.6" style="enable-background:new 0 0 664.7 518.6;" xml:space="preserve">
<style type="text/css">
	.st0{fill:#166534;}
	.st1{fill:#64A4FF;}
	.st2{fill:#BBD070;}
	.st3{fill:#97A43C;}
	.st4{fill:#48753A;}
	.st5{fill:#DBD8E3;}
	.st6{fill:#4ADE80;}
	.st7{fill:#EEA987;}
	.st8{fill:#A3A3A3;}
	.st9{fill:#C4C1CC;}
	.st10{fill:#EFAA88;}
	.st11{fill:#EEA886;}
	.st12{fill:#16202E;}
	.st13{fill:#A77860;}
	.st14{fill:#4DA8F2;}
	.st15{fill:#16A34A;}
	.st16{clip-path:url(#SVGID_2_);fill:#166534;}
	.st17{fill:#6069A8;}
	.st18{fill:#464240;}
	.st19{fill:#EB4747;}
	.st20{fill:#5E5853;}
	.st21{fill:#5F8CC9;}
	.st22{fill:#91887F;}
	.st23{fill:#EDDAD3;}
	.st24{fill:#6E6760;}
	.st25{fill:#807066;}
	.st26{fill:#CF8C6C;}
	.st27{fill:#3B3F66;}
	.st28{fill:#555C94;}
	.st29{fill:#D9D0C4;}
	.st30{fill:#84BDFF;}
	.st31{fill:#3C5780;}
	.st32{fill:#C48A6F;}
	.st33{clip-path:url(#SVGID_4_);fill:#96CBFF;}
	.st34{clip-path:url(#SVGID_4_);fill:#95CAFF;}
	.st35{clip-path:url(#SVGID_4_);fill:#94C9FF;}
	.st36{clip-path:url(#SVGID_4_);fill:#93C9FF;}
	.st37{clip-path:url(#SVGID_4_);fill:#92C8FF;}
	.st38{clip-path:url(#SVGID_4_);fill:#91C7FF;}
	.st39{clip-path:url(#SVGID_4_);fill:#90C6FF;}
	.st40{clip-path:url(#SVGID_4_);fill:#8FC6FF;}
	.st41{clip-path:url(#SVGID_4_);fill:#8EC5FF;}
	.st42{clip-path:url(#SVGID_4_);fill:#8DC4FF;}
	.st43{clip-path:url(#SVGID_4_);fill:#8CC3FF;}
	.st44{clip-path:url(#SVGID_4_);fill:#8BC2FF;}
	.st45{clip-path:url(#SVGID_4_);fill:#8AC2FF;}
	.st46{clip-path:url(#SVGID_4_);fill:#89C1FF;}
	.st47{clip-path:url(#SVGID_4_);fill:#88C0FF;}
	.st48{clip-path:url(#SVGID_4_);fill:#87BFFF;}
	.st49{clip-path:url(#SVGID_4_);fill:#86BFFF;}
	.st50{clip-path:url(#SVGID_4_);fill:#85BEFF;}
	.st51{clip-path:url(#SVGID_4_);fill:#84BDFF;}
	.st52{clip-path:url(#SVGID_4_);fill:#83BCFF;}
	.st53{clip-path:url(#SVGID_4_);fill:#82BBFF;}
	.st54{clip-path:url(#SVGID_4_);fill:#81BBFF;}
	.st55{clip-path:url(#SVGID_4_);fill:#80BAFF;}
	.st56{clip-path:url(#SVGID_4_);fill:#7FB9FF;}
	.st57{clip-path:url(#SVGID_4_);fill:#7EB8FF;}
	.st58{clip-path:url(#SVGID_4_);fill:#7DB7FF;}
	.st59{clip-path:url(#SVGID_4_);fill:#7CB7FF;}
	.st60{clip-path:url(#SVGID_4_);fill:#7BB6FF;}
	.st61{clip-path:url(#SVGID_4_);fill:#7AB5FF;}
	.st62{clip-path:url(#SVGID_4_);fill:#79B4FF;}
	.st63{clip-path:url(#SVGID_4_);fill:#78B4FF;}
	.st64{clip-path:url(#SVGID_4_);fill:#77B3FF;}
	.st65{clip-path:url(#SVGID_4_);fill:#76B2FF;}
	.st66{clip-path:url(#SVGID_4_);fill:#74B1FF;}
	.st67{clip-path:url(#SVGID_4_);fill:#73B0FF;}
	.st68{clip-path:url(#SVGID_4_);fill:#72B0FF;}
	.st69{clip-path:url(#SVGID_4_);fill:#71AFFF;}
	.st70{clip-path:url(#SVGID_4_);fill:#70AEFF;}
	.st71{clip-path:url(#SVGID_4_);fill:#6FADFF;}
	.st72{clip-path:url(#SVGID_4_);fill:#6EADFF;}
	.st73{clip-path:url(#SVGID_4_);fill:#6DACFF;}
	.st74{clip-path:url(#SVGID_4_);fill:#6CABFF;}
	.st75{clip-path:url(#SVGID_4_);fill:#6BAAFF;}
	.st76{clip-path:url(#SVGID_4_);fill:#6AA9FF;}
	.st77{clip-path:url(#SVGID_4_);fill:#69A9FF;}
	.st78{clip-path:url(#SVGID_4_);fill:#68A8FF;}
	.st79{clip-path:url(#SVGID_4_);fill:#67A7FF;}
	.st80{clip-path:url(#SVGID_4_);fill:#66A6FF;}
	.st81{clip-path:url(#SVGID_4_);fill:#65A6FF;}
	.st82{clip-path:url(#SVGID_4_);fill:#64A5FF;}
	.st83{clip-path:url(#SVGID_4_);fill:#63A4FF;}
	.st84{clip-path:url(#SVGID_4_);fill:#62A3FF;}
	.st85{clip-path:url(#SVGID_4_);fill:#61A2FF;}
	.st86{clip-path:url(#SVGID_4_);fill:#60A2FF;}
	.st87{clip-path:url(#SVGID_4_);fill:#5FA1FF;}
	.st88{clip-path:url(#SVGID_4_);fill:#5EA0FF;}
	.st89{clip-path:url(#SVGID_4_);fill:#5D9FFF;}
	.st90{clip-path:url(#SVGID_4_);fill:#5C9EFF;}
	.st91{clip-path:url(#SVGID_4_);fill:#5B9EFF;}
	.st92{clip-path:url(#SVGID_4_);fill:#5A9DFF;}
	.st93{clip-path:url(#SVGID_4_);fill:#599CFF;}
	.st94{clip-path:url(#SVGID_4_);fill:#589BFF;}
	.st95{clip-path:url(#SVGID_4_);fill:#579BFF;}
	.st96{clip-path:url(#SVGID_4_);fill:#569AFF;}
	.st97{clip-path:url(#SVGID_4_);fill:#5599FF;}
	.st98{fill:#DB9C7C;}
	.st99{clip-path:url(#SVGID_6_);fill:#96CBFF;}
	.st100{clip-path:url(#SVGID_6_);fill:#95CAFF;}
	.st101{clip-path:url(#SVGID_6_);fill:#94C9FF;}
	.st102{clip-path:url(#SVGID_6_);fill:#93C9FF;}
	.st103{clip-path:url(#SVGID_6_);fill:#92C8FF;}
	.st104{clip-path:url(#SVGID_6_);fill:#91C7FF;}
	.st105{clip-path:url(#SVGID_6_);fill:#90C6FF;}
	.st106{clip-path:url(#SVGID_6_);fill:#8FC6FF;}
	.st107{clip-path:url(#SVGID_6_);fill:#8EC5FF;}
	.st108{clip-path:url(#SVGID_6_);fill:#8DC4FF;}
	.st109{clip-path:url(#SVGID_6_);fill:#8CC3FF;}
	.st110{clip-path:url(#SVGID_6_);fill:#8BC2FF;}
	.st111{clip-path:url(#SVGID_6_);fill:#8AC2FF;}
	.st112{clip-path:url(#SVGID_6_);fill:#89C1FF;}
	.st113{clip-path:url(#SVGID_6_);fill:#88C0FF;}
	.st114{clip-path:url(#SVGID_6_);fill:#87BFFF;}
	.st115{clip-path:url(#SVGID_6_);fill:#86BFFF;}
	.st116{clip-path:url(#SVGID_6_);fill:#85BEFF;}
	.st117{clip-path:url(#SVGID_6_);fill:#84BDFF;}
	.st118{clip-path:url(#SVGID_6_);fill:#83BCFF;}
	.st119{clip-path:url(#SVGID_6_);fill:#82BBFF;}
	.st120{clip-path:url(#SVGID_6_);fill:#81BBFF;}
	.st121{clip-path:url(#SVGID_6_);fill:#80BAFF;}
	.st122{clip-path:url(#SVGID_6_);fill:#7FB9FF;}
	.st123{clip-path:url(#SVGID_6_);fill:#7EB8FF;}
	.st124{clip-path:url(#SVGID_6_);fill:#7DB7FF;}
	.st125{clip-path:url(#SVGID_6_);fill:#7CB7FF;}
	.st126{clip-path:url(#SVGID_6_);fill:#7BB6FF;}
	.st127{clip-path:url(#SVGID_6_);fill:#7AB5FF;}
	.st128{clip-path:url(#SVGID_6_);fill:#79B4FF;}
	.st129{clip-path:url(#SVGID_6_);fill:#78B4FF;}
	.st130{clip-path:url(#SVGID_6_);fill:#77B3FF;}
	.st131{clip-path:url(#SVGID_6_);fill:#76B2FF;}
	.st132{clip-path:url(#SVGID_6_);fill:#74B1FF;}
	.st133{clip-path:url(#SVGID_6_);fill:#73B0FF;}
	.st134{clip-path:url(#SVGID_6_);fill:#72B0FF;}
	.st135{clip-path:url(#SVGID_6_);fill:#71AFFF;}
	.st136{clip-path:url(#SVGID_6_);fill:#70AEFF;}
	.st137{clip-path:url(#SVGID_6_);fill:#6FADFF;}
	.st138{clip-path:url(#SVGID_6_);fill:#6EADFF;}
	.st139{clip-path:url(#SVGID_6_);fill:#6DACFF;}
	.st140{clip-path:url(#SVGID_6_);fill:#6CABFF;}
	.st141{clip-path:url(#SVGID_6_);fill:#6BAAFF;}
	.st142{clip-path:url(#SVGID_6_);fill:#6AA9FF;}
	.st143{clip-path:url(#SVGID_6_);fill:#69A9FF;}
	.st144{clip-path:url(#SVGID_6_);fill:#68A8FF;}
	.st145{clip-path:url(#SVGID_6_);fill:#67A7FF;}
	.st146{clip-path:url(#SVGID_6_);fill:#66A6FF;}
	.st147{clip-path:url(#SVGID_6_);fill:#65A6FF;}
	.st148{clip-path:url(#SVGID_6_);fill:#64A5FF;}
	.st149{clip-path:url(#SVGID_6_);fill:#63A4FF;}
	.st150{clip-path:url(#SVGID_6_);fill:#62A3FF;}
	.st151{clip-path:url(#SVGID_6_);fill:#61A2FF;}
	.st152{clip-path:url(#SVGID_6_);fill:#60A2FF;}
	.st153{clip-path:url(#SVGID_6_);fill:#5FA1FF;}
	.st154{clip-path:url(#SVGID_6_);fill:#5EA0FF;}
	.st155{clip-path:url(#SVGID_6_);fill:#5D9FFF;}
	.st156{clip-path:url(#SVGID_6_);fill:#5C9EFF;}
	.st157{clip-path:url(#SVGID_6_);fill:#5B9EFF;}
	.st158{clip-path:url(#SVGID_6_);fill:#5A9DFF;}
	.st159{clip-path:url(#SVGID_6_);fill:#599CFF;}
	.st160{clip-path:url(#SVGID_6_);fill:#589BFF;}
	.st161{clip-path:url(#SVGID_6_);fill:#579BFF;}
	.st162{clip-path:url(#SVGID_6_);fill:#569AFF;}
	.st163{clip-path:url(#SVGID_6_);fill:#5599FF;}
	.st164{fill:#E3F2FF;}
	.st165{fill:#FFC955;}
	.st166{fill:#EBEBEB;}
	.st167{fill:#162D40;}
	.st168{fill:#D1C0BA;}
	.st169{fill:#FAE6DE;}
	.st170{fill:#54281A;}
	.st171{fill:#366E9C;}
	.st172{fill:#5C544D;}
	.st173{fill:#3C4145;}
	.st174{fill:#FCCCA2;}
	.st175{fill:#E2D2CA;}
	.st176{fill:#F25F54;}
	.st177{fill:#C98462;}
	.st178{fill:#DE9D7D;}
	.st179{fill:#252E3B;}
	.st180{fill:#88C0FF;}
	.st181{fill:#5189DB;}
	.st182{fill:#C2BEBC;}
	.st183{fill:#D6D6D6;}
	.st184{fill:#E8E8E8;}
	.st185{fill:#C2C2C2;}
</style>
<path class="st0" d="M573.8,338.7c3.2-5.4,5.6-11.1,7.2-17l12.8-2.4l0.1-14.1l0.1-14.1l-12.7-2.7c-1.5-5.9-3.8-11.7-6.9-17.1
	l7.3-10.7l-9.9-10.1l-9.9-10.1l-10.9,7.1c-5.4-3.2-11.1-5.6-17-7.2l-2.4-12.8l-14.1-0.1l-14.1-0.1l-2.7,12.7
	c-5.9,1.5-11.7,3.8-17.1,6.9l-10.7-7.3l-10.1,9.9l-10.1,9.9l7.1,10.9c-3.2,5.4-5.6,11.1-7.2,17l-12.8,2.4l-0.1,14.1l-0.1,14.1
	l12.7,2.7c1.5,5.9,3.8,11.7,6.9,17.1l-7.3,10.7l9.9,10.1l9.9,10.1l10.9-7.1c5.4,3.2,11.1,5.6,17,7.2l2.4,12.8l14.1,0.1l14.1,0.1
	l2.7-12.7c5.9-1.5,11.7-3.8,17.1-6.9l10.7,7.3l10.1-9.9l10.1-9.9L573.8,338.7z M492.2,328.7c-13.4-13.6-13.2-35.5,0.5-48.9
	c13.6-13.4,35.5-13.2,48.9,0.5c13.4,13.6,13.2,35.5-0.5,48.9C527.5,342.5,505.6,342.3,492.2,328.7z"/>
<path class="st0" d="M238.8,224.8c2-4.2,3.3-8.7,4.1-13.2l9.3-2.8l-1-10.5l-1-10.5l-9.6-1c-1.5-4.3-3.7-8.4-6.4-12.2l4.6-8.5
	l-8.1-6.7l-8.1-6.7l-7.5,6.1c-4.2-2-8.7-3.3-13.2-4.1l-2.8-9.3l-10.5,1l-10.5,1l-1,9.6c-4.3,1.5-8.4,3.7-12.2,6.4l-8.5-4.6l-6.7,8.1
	l-6.7,8.1l6.1,7.5c-2,4.2-3.3,8.7-4.1,13.2l-9.3,2.8l1,10.5l1,10.5l9.6,1c1.5,4.3,3.7,8.4,6.4,12.2l-4.6,8.5l8.1,6.7l8.1,6.7
	l7.5-6.1c4.2,2,8.7,3.3,13.2,4.1l2.8,9.3l10.5-1l10.5-1l1-9.6c4.3-1.5,8.4-3.7,12.2-6.4l8.5,4.6l6.7-8.1l6.7-8.1L238.8,224.8z
	 M177.3,223.6c-11-9.1-12.5-25.4-3.4-36.4c9.1-11,25.4-12.5,36.4-3.4c11,9.1,12.5,25.4,3.4,36.4
	C204.6,231.2,188.3,232.7,177.3,223.6z"/>
<g>
	<path class="st1" d="M550.1,437h-0.9v-62.9c0-14-11.4-25.4-25.4-25.4h-64.7c-14.5,0-26.3-11.8-26.3-26.3V205
		c0-14-11.4-25.4-25.4-25.4H242.6v-0.9h164.9c14.5,0,26.3,11.8,26.3,26.3v117.5c0,14,11.4,25.4,25.4,25.4h64.7
		c14.5,0,26.3,11.8,26.3,26.3V437z"/>
</g>
<g>
	<g>
		<g>
			<g>
				<g>
					<path class="st2" d="M284.9,138.9c0,0,10,39.7-14,50.6c-24,10.9-19.4-9-19.4-9s-9.8-2.7,16.9-17.9
						C281,155.4,284.9,138.9,284.9,138.9z"/>
				</g>
			</g>
		</g>
	</g>
	<g>
		<g>
			<g>
				<g>
					<path class="st3" d="M347.6,142.4c0,0,4.9,34.6-40.4,49.6c-45.4,15-51.8,34-51.8,34S254,149.2,347.6,142.4z"/>
				</g>
			</g>
		</g>
	</g>
	<g>
		<g>
			<g>
				<g>
					<path class="st4" d="M255.2,211.9c-13.4-5.1,18.5-32.7,43.1-31.9c24.6,0.7,41.2,9.8,57.7,6
						C355.9,185.9,321.4,237.1,255.2,211.9z"/>
				</g>
			</g>
		</g>
	</g>
</g>
<g>
	<g>
		<path class="st5" d="M300.4,234.9c0.8-10.4,1.3-20.2,1.6-29.3c-2.5-1.3-5.6-2.9-8-4c-7.5-3.6-18-8.4-24.7-11.5
			c-3.9-1.8-7.8-3.1-7.8-3.1s-26.8-2.6-29-2.4c-0.7,0-4,1.2-8.4,2.9c-9.5,3.6-27.8,11-30.8,13.1c-4.3,3.1-19.6,78.2-20,83.3
			c-0.4,5,20.8,11.7,40.5,16.9c0,7.6-0.2,18.3-0.3,28c0,1.7-0.1,3.3-0.1,4.9h86c-0.1-1.7-0.2-3.3-0.3-4.9c0-0.2,0-0.4,0-0.6
			c-0.3-6.6-1.6-18.4-1.3-29.9c0,0-0.2-12.1,1-17.3C299,257.7,300.4,234.9,300.4,234.9z M191.2,279c0.1-9.8,13.2-28,13.2-28
			s0.6-0.3,0.6-0.2c0,0,0.7-0.1,0.7-0.1c0,0,2-1.9,2-1.9c0.5,1.7,4.8,26.3,5.8,40.6C201.3,287,191.2,283.7,191.2,279z"/>
	</g>
</g>
<g>
	<g>
		<path class="st6" d="M301.9,328.6c-0.6-4.1-1.1-8.1-1.6-12.1c0,0,0,0,0-0.1c-0.2-1.3-0.3-2.6-0.5-3.9c0-0.1,0-0.1,0-0.2
			c-0.6-5.5-1.2-10.8-1.5-15.6c-0.3-3.7,0-7.3,0.5-10.8c1.5-24.7,2.2-50.6,2.2-50.6c0.8-10.6,1.2-20.6,1.5-29.9
			c0,0-33.7-15.9-36.7-16.8c0,0,6.4,15,11.2,48.5c1.8,12.9,5.3,34.6,7.7,56.7v0c1.3,11.9,3.9,24.1,5.8,34.9c0.3,1.7,0.6,3.3,0.8,4.9
			h11.3C302.4,331.8,302.2,330.2,301.9,328.6z"/>
	</g>
</g>
<g>
	<g>
		<path class="st6" d="M245.9,289c1.3-12.5,2.5-24.9,1.9-31.7c-4.6-54.8-17.8-69.3-19.7-71.4c-1.5,0.6-7.1,2.7-8.7,3.3
			c-9,3.5-27.3,10-29.8,11.8c-4.3,3.1-21.2,81.8-21.7,86.9c-0.3,3.4,21.7,10.6,44.2,17.1c-0.2,6.2,0.4,14.9-1.7,23.9
			c-0.4,1.6-0.9,2.6-1,4.8l31.3-0.1c0.2-1.6,0.4-3.2,0.6-4.9c0.6-4.9,1.2-9.9,1.8-15.2c9.4,2.4,15.8,4,15.8,4s8.8-14.9,11.4-21
			C270.8,295.4,259.5,292.6,245.9,289z M205.4,270.1c-0.3-11.2-0.2-19-0.2-19c1.1,3.8,2.6,14.8,4,25.7
			C204.6,274.5,205.4,272.4,205.4,270.1z"/>
	</g>
</g>
<g>
	<g>
		<path class="st7" d="M231.1,185.3c0,0,3.4-6.4,2.5-24.7c-0.3-5.1,26.6,12,26.6,12s-0.1,1.7-0.2,4.1c0,1,0,2.1,0,3.2
			c0,0.3,0,0.6,0,0.9c0,0.5,0,1,0,1.5c0,0.6,0,1.2,0.1,1.8c0,0.7,0.1,1.3,0.1,1.9c0.1,1.1,0.8,3.1,1,3.6
			C262.5,192.3,241.2,192.5,231.1,185.3z"/>
	</g>
</g>
<g>
	<path class="st8" d="M253.7,196.9l5,6.7c0,0-2.9,3.9-8.1,1L253.7,196.9z"/>
</g>
<g>
	<path class="st8" d="M257.3,203.9c0,0,18.2,44.3,14.3,100.7l-5.7,10.4l-6.5-8.9c0,0-1-74.8-6.2-102.4L257.3,203.9z"/>
</g>
<g>
	<path class="st7" d="M259,190.7l-5.3,6.2c0,0-8.5-1.6-11-6.1C240.2,186.4,259,190.7,259,190.7z"/>
</g>
<g>
	<path class="st9" d="M260.2,185.3c0,0-0.6,4.7-6.5,11.6l6.4,8.7l3.5-18L260.2,185.3z"/>
</g>
<g>
	<path class="st9" d="M232.8,179.6c0,0,12.3,13.9,20.9,17.3l-4,9.9L230,185.2L232.8,179.6z"/>
</g>
<g>
	<g>
		<path class="st6" d="M359.4,305.6c0,0-16.3-15.9-27.1-18.5c-5-1.2-11.5-8.1-17.7-16.1c-2-2.6-4-5.4-6-8.2c0,0,0,0,0,0
			c-7.6-11-13.6-21.5-13.6-21.5s-22.5-26.4-4.4-38.1c0,0,7.7-0.2,12,2.1c4.4,2.4,13.7,21.8,15.2,25.2c1.6,3.4,18.7,35.4,19.8,36.1
			c1.1,0.7,3.1,3.3,9.9,7c8.4,4.5,21.5,17.7,21.5,17.7L359.4,305.6z"/>
	</g>
</g>
<g>
	<path class="st10" d="M280.9,324c0,0-2.3-0.1-3.3-0.6c0,0-1.7-1.1-3-1.8c-0.4-0.2-0.8-0.4-1-0.5c-1-0.4-3.3-1-5.5-2.6
		c-2.1-1.6-9.2-8.2-9.2-8.2l4.5-7l2.1-6.9c0,0,16.3,1.6,18.5,2.9c0.2,0.1,0.4,0.3,0.6,0.4c1.7,1.3,2.5,3,3.3,3.7
		c0.3,0.3,3.2,3.3,3,4.6c-0.2,1.7-1.1,2.8-2.1,3.3c0,0-0.6,3.3-2.3,4.8c0,0-0.4,3.1-3.1,4.3C283.5,320.5,282.7,323.6,280.9,324z"/>
</g>
<g>
	<path class="st11" d="M254.9,113.3c0,0,29.5-7.1,23.3,30.3c-6.2,37.4-13.3,40.4-31.3,33c-18-7.5-16.7-31.4-17.8-43.1
		C228,121.8,245.4,113.9,254.9,113.3z"/>
</g>
<g>
	<path class="st11" d="M239.4,139.2c-0.4-3.3-7-4.4-7.4,0.5c-0.5,4.9,3.2,13.5,5.6,12.7C240,151.5,240,143.8,239.4,139.2z"/>
</g>
<g>
	<path class="st12" d="M230.8,152.6c0,0,0.6-11.8,4.9-12.2c4.3-0.4,5,4.3,5,4.3l4.3,0.8c0,0-1.5-10.3,2.7-12.1
		c4.3-1.9,27.8,5.3,31.2,2.2c3.4-3.1,1.5-23.9-4.8-26.7c-6.3-2.8-23.5-8.9-36-0.2c0,0-9.8-1-11.2,7
		C225.7,123.5,228.1,146.8,230.8,152.6z"/>
</g>
<g>
	<path class="st6" d="M271.2,296.4l-12.2,21c0,0-32.3-8.3-39.8-10.4l17.2-20.5C236.4,286.4,261.8,292.2,271.2,296.4z"/>
</g>
<g>
	<path class="st13" d="M260.1,184.1L260.1,184.1c-15.8-1.6-22-13.8-22-13.8c10,9.9,21.9,9.6,21.9,9.6c0,0.3,0,0.6,0,0.9
		c0,0.5,0,1,0,1.5C260.1,182.9,260.1,183.5,260.1,184.1z"/>
</g>
<g>
	<path class="st14" d="M478.8,369.9c-0.9-1.1-2.2-1.9-3.8-1.9c-2.1,0-4,1.3-4.6,3.3l0,0l0,0c-0.2,0.5-0.2,1-0.3,1.5
		c0,0.6,0.1,1.2,0.3,1.7c0.3,0.9,0.9,1.6,1.6,2.2c0.7,0.5,1.6,0.9,2.5,1c0.1,0,0.3,0,0.4,0c0.1,0,0.2,0,0.2,0c0,0,0.1,0,0.1,0
		c0.5,0,0.9-0.1,1.4-0.3c1.8-0.7,3.1-2.4,3.2-4.5C479.8,371.7,479.5,370.7,478.8,369.9z M476.2,376.2L476.2,376.2
		c-0.3,0.1-0.7,0.2-1,0.2l0,0c-0.1,0-0.2,0-0.2,0c-0.3,0-0.7-0.1-1-0.2c-0.4-0.1-0.8-0.3-1.2-0.6c-0.1-0.1-0.2-0.2-0.4-0.3
		c-0.7-0.7-1.1-1.6-1-2.6c0-0.3,0-0.5,0.1-0.8c0-0.1,0.1-0.2,0.1-0.4c0.5-1.4,1.9-2.5,3.5-2.5c1.2,0,2.2,0.6,2.8,1.4
		c0.5,0.6,0.8,1.4,0.7,2.2C478.6,374.3,477.6,375.7,476.2,376.2z"/>
</g>
<g>
	<path class="st11" d="M294.1,279.2c18.4,18.9,42.6,42.7,42.6,42.7l9.5-18c0,0-21.5-25.3-36.1-42.1
		C305.6,264,297.4,269.2,294.1,279.2z"/>
</g>
<g>
	<g>
		<path class="st11" d="M282.8,304.6c0,0,4.9,2.4,6.2,3.5c1.3,1.1,6.5,5,7.8,5.9c1.3,0.9-1.9,3.5-11.3-0.5
			C276.2,309.4,282.8,304.6,282.8,304.6z"/>
	</g>
</g>
<g>
	<polygon class="st15" points="283.2,250.5 274.6,330.6 388,330.6 396.6,250.5 	"/>
</g>
<g>
	
		<rect x="265.6" y="323.4" transform="matrix(-1 -1.224647e-16 1.224647e-16 -1 550.1054 653.9453)" class="st15" width="18.9" height="7.2"/>
</g>
<g>
	<path class="st0" d="M394.5,326.9H280.2l8.7-81h114.3L394.5,326.9z M281.2,326h112.5l8.5-79.2H289.7L281.2,326z"/>
</g>
<g>
	<g>
		<defs>
			<rect id="SVGID_1_" x="83.4" y="330.4" width="308.1" height="4.9"/>
		</defs>
		<use xlink:href="#SVGID_1_"  style="overflow:visible;fill:#166534;"/>
		<clipPath id="SVGID_2_">
			<use xlink:href="#SVGID_1_"  style="overflow:visible;"/>
		</clipPath>
		<path class="st16" d="M83.4,330.4v4.9V330.4z"/>
		<rect x="83.4" y="330.4" class="st16" width="4.7" height="4.9"/>
		<rect x="88.2" y="330.4" class="st16" width="4.7" height="4.9"/>
		<rect x="92.9" y="330.4" class="st16" width="4.7" height="4.9"/>
		<rect x="97.6" y="330.4" class="st16" width="4.7" height="4.9"/>
		<rect x="102.4" y="330.4" class="st16" width="4.7" height="4.9"/>
		<rect x="107.1" y="330.4" class="st16" width="4.7" height="4.9"/>
		<rect x="111.9" y="330.4" class="st16" width="4.7" height="4.9"/>
		<rect x="116.6" y="330.4" class="st16" width="4.7" height="4.9"/>
		<rect x="121.3" y="330.4" class="st16" width="4.7" height="4.9"/>
		<rect x="126.1" y="330.4" class="st16" width="4.7" height="4.9"/>
		<rect x="130.8" y="330.4" class="st16" width="4.7" height="4.9"/>
		<rect x="135.6" y="330.4" class="st16" width="4.7" height="4.9"/>
		<rect x="140.3" y="330.4" class="st16" width="4.7" height="4.9"/>
		<rect x="145" y="330.4" class="st16" width="4.7" height="4.9"/>
		<rect x="149.8" y="330.4" class="st16" width="4.7" height="4.9"/>
		<rect x="154.5" y="330.4" class="st16" width="4.7" height="4.9"/>
		<rect x="159.3" y="330.4" class="st16" width="4.7" height="4.9"/>
		<rect x="164" y="330.4" class="st16" width="4.7" height="4.9"/>
		<rect x="168.7" y="330.4" class="st16" width="4.7" height="4.9"/>
		<rect x="173.5" y="330.4" class="st16" width="4.7" height="4.9"/>
		<rect x="178.2" y="330.4" class="st16" width="4.7" height="4.9"/>
		<rect x="183" y="330.4" class="st16" width="4.7" height="4.9"/>
		<rect x="187.7" y="330.4" class="st16" width="4.7" height="4.9"/>
		<rect x="192.4" y="330.4" class="st16" width="4.7" height="4.9"/>
		<rect x="197.2" y="330.4" class="st16" width="4.7" height="4.9"/>
		<rect x="201.9" y="330.4" class="st16" width="4.7" height="4.9"/>
		<rect x="206.7" y="330.4" class="st16" width="4.7" height="4.9"/>
		<rect x="211.4" y="330.4" class="st16" width="4.7" height="4.9"/>
		<rect x="216.1" y="330.4" class="st16" width="4.7" height="4.9"/>
		<rect x="220.9" y="330.4" class="st16" width="4.7" height="4.9"/>
		<rect x="225.6" y="330.4" class="st16" width="4.7" height="4.9"/>
		<rect x="230.4" y="330.4" class="st16" width="4.7" height="4.9"/>
		<rect x="235.1" y="330.4" class="st16" width="4.7" height="4.9"/>
		<rect x="239.8" y="330.4" class="st16" width="4.7" height="4.9"/>
		<rect x="244.6" y="330.4" class="st16" width="4.7" height="4.9"/>
		<rect x="249.3" y="330.4" class="st16" width="4.7" height="4.9"/>
		<rect x="254.1" y="330.4" class="st16" width="4.7" height="4.9"/>
		<rect x="258.8" y="330.4" class="st16" width="4.7" height="4.9"/>
		<rect x="263.5" y="330.4" class="st16" width="4.7" height="4.9"/>
		<rect x="268.3" y="330.4" class="st16" width="4.7" height="4.9"/>
		<rect x="273" y="330.4" class="st16" width="4.7" height="4.9"/>
		<rect x="277.8" y="330.4" class="st16" width="4.7" height="4.9"/>
		<rect x="282.5" y="330.4" class="st16" width="4.7" height="4.9"/>
		<rect x="287.3" y="330.4" class="st16" width="4.7" height="4.9"/>
		<rect x="292" y="330.4" class="st16" width="4.7" height="4.9"/>
		<rect x="296.7" y="330.4" class="st16" width="4.7" height="4.9"/>
		<rect x="301.5" y="330.4" class="st16" width="4.7" height="4.9"/>
		<rect x="306.2" y="330.4" class="st16" width="4.7" height="4.9"/>
		<rect x="311" y="330.4" class="st16" width="4.7" height="4.9"/>
		<rect x="315.7" y="330.4" class="st16" width="4.7" height="4.9"/>
		<rect x="320.4" y="330.4" class="st16" width="4.7" height="4.9"/>
		<rect x="325.2" y="330.4" class="st16" width="4.7" height="4.9"/>
		<rect x="329.9" y="330.4" class="st16" width="4.7" height="4.9"/>
		<rect x="334.7" y="330.4" class="st16" width="4.7" height="4.9"/>
		<rect x="339.4" y="330.4" class="st16" width="4.7" height="4.9"/>
		<rect x="344.1" y="330.4" class="st16" width="4.7" height="4.9"/>
		<rect x="348.9" y="330.4" class="st16" width="4.7" height="4.9"/>
		<rect x="353.6" y="330.4" class="st16" width="4.7" height="4.9"/>
		<rect x="358.4" y="330.4" class="st16" width="4.7" height="4.9"/>
		<rect x="363.1" y="330.4" class="st16" width="4.7" height="4.9"/>
		<rect x="367.8" y="330.4" class="st16" width="4.7" height="4.9"/>
		<rect x="372.6" y="330.4" class="st16" width="4.7" height="4.9"/>
		<rect x="377.3" y="330.4" class="st16" width="4.7" height="4.9"/>
		<rect x="382.1" y="330.4" class="st16" width="4.7" height="4.9"/>
		<rect x="386.8" y="330.4" class="st16" width="4.7" height="4.9"/>
		<path class="st16" d="M391.5,335.3v-4.9V335.3z"/>
	</g>
</g>
<g>
	<rect x="312.9" y="434.5" class="st15" width="267" height="4.9"/>
</g>
<g>
	<path class="st0" d="M329.3,289.2c-0.9,4.5,1.2,8.6,4.6,9.4c3.5,0.7,7-2.3,7.9-6.8c0.9-4.5-1.2-8.7-4.6-9.4
		C333.8,281.7,330.2,284.8,329.3,289.2z"/>
</g>
<g>
	<g>
		<g>
			<path class="st17" d="M545.5,257.5c0,0,2.6,4.4,3.7,5.2c1.5,1,0.6,2-0.2,2c-0.7,0-4.3,0.3-5.1-0.6c-0.8-0.9-1.2-3.6-1.9-4.3
				c-0.7-0.7-1.5-3.5,0.4-4.2C544,254.8,545.5,257.5,545.5,257.5z"/>
		</g>
	</g>
</g>
<g>
	<g>
		<g>
			<path class="st8" d="M544.4,255.6c0,0,3,5.2,3.5,6c0.5,0.8-1,0.8-1.9,0.4c-0.9-0.4-3.2-4.1-3.6-4.8c-0.4-0.8-0.1-1.7-0.1-1.7
				L544.4,255.6z"/>
		</g>
	</g>
</g>
<g>
	<g>
		<g>
			<polygon class="st17" points="541.4,258.3 542.1,263.7 542.4,263.7 542.3,259.9 			"/>
		</g>
	</g>
</g>
<g>
	<g>
		<g>
			<path class="st17" d="M519.6,257.5c0,0,2.6,4.4,3.7,5.2c1.5,1,0.6,2-0.2,2c-0.7,0-4.3,0.3-5.1-0.6c-0.8-0.9-1.2-3.6-1.9-4.3
				c-0.7-0.7-1.5-3.6,0.4-4.2C518.1,254.9,519.6,257.5,519.6,257.5z"/>
		</g>
	</g>
</g>
<g>
	<g>
		<g>
			<path class="st8" d="M518.6,255.6c0,0,2.8,5.2,3.4,5.9c0.5,0.8-1,0.8-1.9,0.4c-0.9-0.4-3.2-4.1-3.6-4.8c-0.4-0.8-0.1-1.7-0.1-1.7
				L518.6,255.6z"/>
		</g>
	</g>
</g>
<g>
	<g>
		<g>
			<polygon class="st17" points="515.4,258.3 516.1,263.7 516.5,263.7 516.4,259.9 			"/>
		</g>
	</g>
</g>
<g>
	<g>
		<g>
			<path class="st8" d="M508,217.2l23.7,10.8c0,0,2.6,0.9,2.9,3.8c0.9,9.2,7.8,23.7,7.8,23.7c2.2,1.1,2,0.1,2,0.1
				c-1.4-4.4-3.1-22.8-3.7-30.1c-0.1-1.6-0.2-2.6-0.2-3c0-0.2-0.3-0.5-0.7-0.9c-3.2-2.6-16.6-8.1-16.6-8.1
				C513.2,213.2,508,217.2,508,217.2z"/>
		</g>
	</g>
</g>
<g>
	<g>
		<g>
			<path class="st8" d="M503.5,221.8c0.7,6.4,9.9,5.7,9.9,5.7h11.1c0,0-2.9,6.5-4,11.9c-1.2,5.8-4,16-4,16s0.2,0.3,2.2,0.2
				c0,0,8.7-17.3,12-21.7c0.7-0.9,2.8-6,3.1-9.1c0.1-1,0-1.8-0.3-2.1c-0.4-0.3-1.3-0.9-2.4-1.7c-3.5-2.2-9.5-5.6-12.8-6.3
				c-4.5-1-11.6-2.9-11.6-2.9S502.8,215.4,503.5,221.8z"/>
		</g>
	</g>
</g>
<g>
	<path class="st18" d="M511.1,172.5c0,0-1.7-3.1-0.8-6.5c0.8-3.3,3.9-6.7,8.5-5.2c4.6,1.5,8.2,5.1,5.5,9.2c-2.7,4.1,2.5,5.9,1.1,7.9
		c-1.3,1.9-0.8,4-0.3,4.4c0.6,0.5,2.4,2.1,2.2,4c-0.2,1.9-8.8-5.6-8.8-5.6S513.7,171.3,511.1,172.5z"/>
</g>
<g>
	<path class="st19" d="M524.9,212.7c0,0-0.7,3.3-18.4-0.9C506.6,211.8,512.5,209.9,524.9,212.7z"/>
</g>
<g>
	<g>
		<path class="st6" d="M506.4,212.8c-0.3,0.5-0.5,1-0.8,1.6c6.5,0.2,12.9,0.4,19.4,0.6c-1-3.4-0.7-8.1-0.5-11.6
			c0.2-4.3,2.6-7.3,2.3-11.6c1.3,0.2,1.5,0.2,2.8,0.4c-2-5.6-2.6-8.3-8.7-10.5c-2-0.7-3.3-0.8-5.4-0.7c-7,0.6-9.2,0.7-12.6,7
			c5.4,0.9,4.5,2.8,6.2,8.2c0.8,2.6,1.6,5.6,1.2,8.3C509.7,207.3,506.4,210.3,506.4,212.8z"/>
	</g>
</g>
<g>
	<g>
		<path class="st11" d="M517.6,183c-2.9-0.5-2.3-2.1-2.3-2.1s0.1-0.9,0.2-2c0-0.3,0-0.6,0-0.9c0-0.5,0-1-0.1-1.4
			c-0.2-1.9,5.2-0.8,5.2-0.8s-0.3,3.9,0.4,5.1C521.9,182,520.5,183.5,517.6,183z"/>
	</g>
</g>
<g>
	<g>
		<path class="st11" d="M512.1,180.8c0,0,5.8,6.7,8,8.3c0,0,2.5-2.2,0.9-8.1C521,181,518.2,179.6,512.1,180.8z"/>
	</g>
</g>
<g>
	<path class="st11" d="M512.3,164.7c0,0-3,5.8,0,11.3c3,5.5,8.9-2.4,9.3-3.3c0.4-0.9,2.4-6.2-1.6-7.8
		C515.9,163.3,513.1,163.1,512.3,164.7z"/>
</g>
<g>
	<path class="st18" d="M513.3,166.8c0,0-2.1,2.7-2.3,4.7c0,0-0.8-3.8,1.5-7.5c2.3-3.7,8.3-0.2,9.1,1.3c0.8,1.5,3.1,2.8-0.8,9
		C520.8,174.4,513.7,169.5,513.3,166.8z"/>
</g>
<g>
	<path class="st13" d="M518.1,176.6c0,0-0.5,1.1-2.6,2.2c0-0.3,0-0.6,0-0.9C515.6,177.9,516.9,177.7,518.1,176.6z"/>
</g>
<g>
	<path class="st11" d="M487.6,207.5c0,0-1.4,0.6-2.1,0.3s-1.7-0.3-2.1-0.3c-0.4,0-1.8-0.5-1.8,0c0,0.5,2.3,0.9,2.7,1.1
		c0.5,0.2-1.4,1.2-1.5,1.6c-0.2,0.4,1.9,3.4,3,2.5c1.2-0.8,1.8-2.5,2-2.6c0.2-0.1,0.9-0.6,0.9-0.6L487.6,207.5z"/>
</g>
<g>
	<path class="st11" d="M483,210c0,0-3.4,2.8-3.4,3.2c-0.1,0.4,0.1,0.6,0.5,0.3c0.3-0.2,3.3-2.6,3.3-2.6s-3.4,4-3.5,4.3
		c-0.1,0.2,0.3,0.5,0.4,0.4s3.8-3.9,3.8-3.9s-3.1,3.7-3.2,4c0,0.2,0.4,0.5,0.6,0.2c0.3-0.3,3.4-3.5,3.4-3.5s-2.1,2.9-2,3.1
		c0.1,0.2,0.3,0.5,0.9-0.3c0.5-0.8,1.9-2.4,1.9-2.4L483,210z"/>
</g>
<g>
	<g>
		<path class="st15" d="M523.3,227.5h-9.9c0,0-9.1,0.7-9.9-5.7c-0.7-6.4,3-9.9,3-9.9s4.8,1.3,9,2.3c2.1-0.4,4.7-0.7,7.6-0.7
			c0,0,17.9,5.9,17.3,9C540.5,222.5,533,218.5,523.3,227.5z"/>
	</g>
</g>
<g>
	<polygon class="st20" points="516.9,216.4 535.8,216.1 526.2,220.9 	"/>
</g>
<g>
	<path class="st21" d="M522.7,214c0,0-4.3,1.6-9.5,0.2l-0.2-1.9l10.7,0.6L522.7,214z"/>
</g>
<g>
	<polygon class="st22" points="526.2,220.9 516.9,217.3 516.9,216.4 527,220 	"/>
</g>
<g>
	<g>
		<path class="st23" d="M522.7,214.9c-0.1,0.7,0.7,1.2,1.3,0.9l1.1-0.5c0.3-0.1,0.5-0.5,0.5-0.8c-0.5-2.9-1.4-14,0-15.9
			c0.5-0.7,0.9-1.3,1-1.9c0.9,2.4,2.1,5.6,2.6,7.3l8.9,11.9l3,0.8c-3.7-9-6.7-13.8-6.7-13.8c-0.6-1.6-2.3-6.3-3.7-10.5
			c-0.9-2.7-1.8-5.1-2.3-6.5c-0.2-0.7-0.7-1.2-1.3-1.6c-1.4-0.8-3.7-2.1-5.8-3.1c0,0,0,0,0,0c-0.1,0-0.1-0.1-0.2-0.1c0,0,0,0,0,0
			c0,0,0,0,0,0C525,187,523.5,204,522.7,214.9C522.7,214.8,522.7,214.9,522.7,214.9z"/>
	</g>
	<g>
		<path class="st23" d="M507.9,181.5c-1.3,0.2-4.4,3.3-6.1,6.4c-1.9,3.5-3.9,7.5-5.3,8.9c-2.7,2.4-10.2,11-10.6,10.8
			c-0.1-0.1,2.1,2.6,2.3,2.7c0.1,0.1,12.3-10.5,13.5-12.1c1.1-1.5,4.1-7.9,5-7.8c0,0,0,0,0,0c0,0,0,0,0,0c0.1,0.1,1.1,2.5,2.2,5.9
			c0,0.1,0,0.1,0.1,0.2c0.7,2.4,0.6,5,0.3,7.9c-0.3,2.2-1.9,5.8-2.9,7.6c-0.1,0.2-0.1,0.6,0,0.9c0,0,0,0,0,0
			c0.1,0.2,0.2,0.3,0.3,0.4l3.6,1.3l0.8,0.3c0.6,0.2,1.2,0.1,1.7-0.2c0.4-0.3,0.7-0.7,0.7-1.2c0.8-6.1,1.8-12.4,2.6-14.7
			c3.5-10.4-1.4-18.1-1.4-18.1S509,181.1,507.9,181.5z"/>
	</g>
</g>
<g>
	<polygon class="st24" points="526.2,220.9 531.8,205.6 550,205.9 544.6,220 	"/>
</g>
<g>
	<path class="st25" d="M537.6,212.4c-0.6,1.1-0.4,2.3,0.4,2.7c0.8,0.4,1.8-0.2,2.4-1.3c0.6-1.1,0.4-2.3-0.4-2.7
		C539.3,210.7,538.2,211.3,537.6,212.4z"/>
</g>
<g>
	<path class="st18" d="M518.5,170.5c0,0,1.2,1.8,0.1,3.4c-1.1,1.6,0.3,3.1,0.5,4.7c0.2,1.6-4.5,6,0.8,8.2c5.2,2.2,6.9-1.4,5.6-3.4
		c-1.3-2-2.3-3.6-2.4-6.5C522.9,174,522,169.6,518.5,170.5z"/>
</g>
<g>
	<polygon class="st15" points="492.9,163 503.9,163 503.9,170.9 503.9,172.6 502.2,170.9 492.9,170.9 	"/>
</g>
<g>
	<g>
		<g>
			<g>
				<g>
					<path class="st2" d="M431.6,284.5c0,0-23.8,22.7-12.2,40.3c11.6,17.6,17,2.2,17,2.2s7.8,2.4-3.8-19.4
						C427.1,297.4,431.6,284.5,431.6,284.5z"/>
				</g>
			</g>
		</g>
	</g>
	<g>
		<g>
			<g>
				<g>
					<path class="st3" d="M387.6,259.9c0,0-18.2,21.4,6.1,51c24.3,29.6,20.6,45.3,20.6,45.3S448.1,304.7,387.6,259.9z"/>
				</g>
			</g>
		</g>
	</g>
	<g>
		<g>
			<g>
				<g>
					<path class="st4" d="M419.7,347.2c11.3,2.3,2.2-30.6-14.8-40.7c-17-10-32.2-11-41.7-20.7C363.3,285.9,364,336,419.7,347.2z"/>
				</g>
			</g>
		</g>
	</g>
</g>
<g>
	<g>
		<g>
			<path class="st11" d="M345.8,361.7c0,0,0.5-1.3,0.6-1.5c0.1-0.2,0.6-0.5,1.2-0.8c0.6-0.3,1.6-0.5,1.7-0.4
				c0.1,0.1,0.2,0.1,0.4,0.3c0.1,0.3,0.1,0.6,0.1,0.6s0.3,0.3,0.2,0.6c0,0,0.3,0.3,0.1,0.7c0,0,0.3,0.3,0.1,0.5c0,0-0.5,0.3-0.7,0.5
				c-0.2,0.2-1.2,0.8-2.4,1.2C347.2,363.4,346,363.4,345.8,361.7z"/>
		</g>
	</g>
</g>
<g>
	<g>
		<g>
			<path class="st26" d="M347.6,361c0,0,0,0.7-0.1,0.9c-0.1,0.2,1.4,0.6,1.4,0.6S348.5,361,347.6,361z"/>
		</g>
	</g>
</g>
<g>
	<g>
		<g>
			<polygon class="st27" points="319.5,429 320.2,427 322.9,427.4 322.5,429.3 			"/>
		</g>
	</g>
</g>
<g>
	<g>
		<g>
			<polygon class="st28" points="342.3,428.8 342.5,429.9 345.5,429.4 345.4,427.7 			"/>
		</g>
	</g>
</g>
<g>
	<g>
		<g>
			<g>
				<path class="st8" d="M335.7,397.2c0,0-0.4,2.4-1,5.2c-0.1,0.5-0.2,1-0.3,1.4c-0.5,2.6-1,5.1-1.2,5.7c-0.4,1.2-9.8,18.3-9.8,18.3
					s-3.8-0.3-4-0.8c0,0,7.8-18.6,7.8-19.2c0-0.7,1-19.7,1-19.7S335.5,396.1,335.7,397.2z"/>
			</g>
		</g>
	</g>
</g>
<g>
	<g>
		<g>
			<g>
				<path class="st8" d="M340,386.9c0,0,3.7,18.7,4,20.1c0.3,1.4,1.7,20.6,1.7,20.6s-0.8,1.7-3.9,1.1c0,0-4.1-20.6-4.5-21.3
					c-1.4-2.7-8-15.6-8.6-17.5c-0.6-1.9-0.5-4-0.5-4S333.1,383.1,340,386.9z"/>
			</g>
		</g>
	</g>
</g>
<g>
	<g>
		<g>
			<g>
				<path class="st0" d="M338.4,362.7c0,0,1.6,4,2,3.9c0.4-0.1,5-5.5,5-5.5s2.1,2.6,1.8,2.9c-0.4,0.4-5.8,9.5-6.6,9.3
					c-0.7-0.2-4.1-5.7-4.1-5.7S336.4,363.4,338.4,362.7z"/>
			</g>
		</g>
	</g>
</g>
<g>
	<g>
		<g>
			<g>
				<path class="st15" d="M331.6,355.1c0,0,4.2,3.2,5.3,4.4c1.1,1.3,4.3,6.5,4.1,8.1c-0.9,6-1.3,11.2-1.3,15.3
					c0,3.6,1.1,4.5,0.4,4.5c-0.8,0.1-11.3,3.8-12.8,4.3c0,0,1-12.6,1.5-14.1C329.3,376.2,327.1,360.9,331.6,355.1z"/>
			</g>
		</g>
	</g>
</g>
<g>
	<g>
		<g>
			<path class="st29" d="M358.3,349.1l0.9,4.7l0.9,4.7c0,0-5.3-1.7-11.4-0.5l-0.4-2.1l-0.4-2.1C354,352.6,358.3,349.1,358.3,349.1z"
				/>
		</g>
	</g>
</g>
<g>
	<g>
		<g>
			<path class="st30" d="M342.5,429.9c0,0,2.3-0.4,2.4-0.5c0.1-0.1,0.6-1,0.9-0.8c0.4,0.2,0.4,1.3,0.7,1.5c0.3,0.2,3.1,2,3.4,2.4
				c0.3,0.3,2.4,0.1,2.7,0.7c0.2,0.6,0.3,2-2.8,1.6c-3.1-0.3-6.6,0.2-7.3-0.2C341.7,434.2,342.3,430.8,342.5,429.9z"/>
		</g>
	</g>
</g>
<g>
	<g>
		<g>
			<path class="st30" d="M319.5,429c0,0,2.3-0.1,2.4-0.1c0.1-0.1,0.7-0.9,1-0.7c0.3,0.2,0.2,1.3,0.5,1.5c0.3,0.2,2.7,2.5,3,2.9
				c0.3,0.4,2.4,0.5,2.5,1.1c0.1,0.6-0.1,2-3.1,1.2c-3-0.8-6.6-0.9-7.2-1.4C318.1,433.1,319.1,429.8,319.5,429z"/>
		</g>
	</g>
</g>
<g>
	<g>
		<g>
			<g>
				<path class="st7" d="M337.6,387.8c0,0,0.3,1.1,0.7,1.4c0.4,0.2-2.1,2.7-2.1,2.7s-1-2.3-1-2.5
					C335.3,389.1,337.6,387.8,337.6,387.8z"/>
			</g>
		</g>
	</g>
</g>
<g>
	<g>
		<g>
			<g>
				<path class="st0" d="M329.7,360c0,0-3,14.2-3.2,15.6c-0.2,1.4,8.7,14.5,8.7,14.5l3-1.8c0,0-7.2-13.2-7.2-13.8
					c0-0.6,3.5-12,3.5-12s1.4-2.5-1.1-3.7C330.8,357.7,329.7,360,329.7,360z"/>
			</g>
		</g>
	</g>
</g>
<g>
	<g>
		<g>
			<path class="st31" d="M339.4,388.8c0,0,1,4.8,0.9,6.3s-5.6-2.3-5.3-3.8L339.4,388.8z"/>
		</g>
	</g>
</g>
<g>
	<g>
		<g>
			<g>
				<g>
					<path class="st11" d="M331.6,355.1c0,0,7.6,8.3,7.1,7.3c-1.7-3.3-2.8-3.8-2.8-4.4c0-0.5,0.2-1.8,0.2-2.3
						c0.1-0.9,0.1-1.6,0.1-1.6s-3.8-5.3-3.6-3.5C332.8,352.5,331.6,355.1,331.6,355.1z"/>
				</g>
			</g>
		</g>
	</g>
</g>
<g>
	<g>
		<g>
			<g>
				<g>
					<path class="st11" d="M338.8,345.4c0,0,1,2.4,1.1,3c0,0.6-0.1,1,0,1.7c0.1,0.7,0.7,2.1,0.6,2.5c-0.1,0.5-1.1,0.2-1.2,1
						c-0.1,0.8-0.9,2.3-1.2,2.3c-0.9,0.1-4.5-1.4-4.8-2.1c-0.2-0.8-1.5-4.9-1.9-5.7s6.3-5.2,6.9-3.9
						C338.8,345.4,338.8,345.4,338.8,345.4z"/>
				</g>
			</g>
		</g>
	</g>
</g>
<g>
	<g>
		<g>
			<path class="st12" d="M329.7,347.2c-0.5-2.1,1.9-2.3,1.9-2.3s1.6-1.8,5.3-1.6c3.7,0.2,3.1,5.1,3.1,5.1s-2.6-0.4-3.7-0.1
				c0,0-0.1,2.1,0,2.6l-1.4-0.1c0,0,0.2-1.8-0.5-1.9c-0.7-0.1-0.9,3.9-2.1,4.8c0,0,0-0.3-0.2-0.6l0,0l0,0c-0.3-0.4-0.6-1.2-1-2
				C330.5,349.7,329.9,348.2,329.7,347.2z"/>
		</g>
	</g>
</g>
<g>
	<g>
		<g>
			<g>
				<g>
					<path class="st11" d="M335.3,349.2c0,0-0.5-1.4-1.8-0.5c-0.9,0.7,0,3,0.9,3C335.3,351.7,335.7,350.4,335.3,349.2z"/>
				</g>
			</g>
		</g>
	</g>
</g>
<g>
	<g>
		<g>
			<path class="st32" d="M333,353.1c0,0,0.2,0.7,0.4,0.9c0.2,0.2,1.1,0.9,2.8,1.5l-0.1,1.5C336,356.9,332.8,355.7,333,353.1z"/>
		</g>
	</g>
</g>
<g>
	<g>
		<g>
			<g>
				<defs>
					<path id="SVGID_3_" d="M349.7,363.1l0.5-0.3l-2.4-5.1l-1.4,0.6l2.1,4.4C348.7,363.2,349.2,363.3,349.7,363.1z"/>
				</defs>
				<clipPath id="SVGID_4_">
					<use xlink:href="#SVGID_3_"  style="overflow:visible;"/>
				</clipPath>
				<path class="st33" d="M346.4,357.7v5.6V357.7z"/>
				<rect x="346.4" y="357.7" class="st33" width="0.1" height="5.6"/>
				<rect x="346.5" y="357.7" class="st34" width="0.1" height="5.6"/>
				<rect x="346.5" y="357.7" class="st35" width="0.1" height="5.6"/>
				<rect x="346.6" y="357.7" class="st36" width="0.1" height="5.6"/>
				<rect x="346.7" y="357.7" class="st37" width="0.1" height="5.6"/>
				<rect x="346.7" y="357.7" class="st38" width="0.1" height="5.6"/>
				<rect x="346.8" y="357.7" class="st39" width="0.1" height="5.6"/>
				<rect x="346.8" y="357.7" class="st40" width="0.1" height="5.6"/>
				<rect x="346.9" y="357.7" class="st41" width="0.1" height="5.6"/>
				<rect x="346.9" y="357.7" class="st42" width="0.1" height="5.6"/>
				<rect x="347" y="357.7" class="st43" width="0.1" height="5.6"/>
				<rect x="347.1" y="357.7" class="st44" width="0.1" height="5.6"/>
				<rect x="347.1" y="357.7" class="st45" width="0.1" height="5.6"/>
				<rect x="347.2" y="357.7" class="st46" width="0.1" height="5.6"/>
				<rect x="347.2" y="357.7" class="st47" width="0.1" height="5.6"/>
				<rect x="347.3" y="357.7" class="st48" width="0.1" height="5.6"/>
				<rect x="347.4" y="357.7" class="st49" width="0.1" height="5.6"/>
				<rect x="347.4" y="357.7" class="st50" width="0.1" height="5.6"/>
				<rect x="347.5" y="357.7" class="st51" width="0.1" height="5.6"/>
				<rect x="347.5" y="357.7" class="st52" width="0.1" height="5.6"/>
				<rect x="347.6" y="357.7" class="st53" width="0.1" height="5.6"/>
				<rect x="347.6" y="357.7" class="st54" width="0.1" height="5.6"/>
				<rect x="347.7" y="357.7" class="st55" width="0.1" height="5.6"/>
				<rect x="347.8" y="357.7" class="st56" width="0.1" height="5.6"/>
				<rect x="347.8" y="357.7" class="st57" width="0.1" height="5.6"/>
				<rect x="347.9" y="357.7" class="st58" width="0.1" height="5.6"/>
				<rect x="347.9" y="357.7" class="st59" width="0.1" height="5.6"/>
				<rect x="348" y="357.7" class="st60" width="0.1" height="5.6"/>
				<rect x="348" y="357.7" class="st61" width="0.1" height="5.6"/>
				<rect x="348.1" y="357.7" class="st62" width="0.1" height="5.6"/>
				<rect x="348.2" y="357.7" class="st63" width="0.1" height="5.6"/>
				<rect x="348.2" y="357.7" class="st64" width="0.1" height="5.6"/>
				<rect x="348.3" y="357.7" class="st65" width="0.1" height="5.6"/>
				<rect x="348.3" y="357.7" class="st66" width="0.1" height="5.6"/>
				<rect x="348.4" y="357.7" class="st67" width="0.1" height="5.6"/>
				<rect x="348.5" y="357.7" class="st68" width="0.1" height="5.6"/>
				<rect x="348.5" y="357.7" class="st69" width="0.1" height="5.6"/>
				<rect x="348.6" y="357.7" class="st70" width="0.1" height="5.6"/>
				<rect x="348.6" y="357.7" class="st71" width="0.1" height="5.6"/>
				<rect x="348.7" y="357.7" class="st72" width="0.1" height="5.6"/>
				<rect x="348.7" y="357.7" class="st73" width="0.1" height="5.6"/>
				<rect x="348.8" y="357.7" class="st74" width="0.1" height="5.6"/>
				<rect x="348.9" y="357.7" class="st75" width="0.1" height="5.6"/>
				<rect x="348.9" y="357.7" class="st76" width="0.1" height="5.6"/>
				<rect x="349" y="357.7" class="st77" width="0.1" height="5.6"/>
				<rect x="349" y="357.7" class="st78" width="0.1" height="5.6"/>
				<rect x="349.1" y="357.7" class="st79" width="0.1" height="5.6"/>
				<rect x="349.2" y="357.7" class="st80" width="0.1" height="5.6"/>
				<rect x="349.2" y="357.7" class="st81" width="0.1" height="5.6"/>
				<rect x="349.3" y="357.7" class="st82" width="0.1" height="5.6"/>
				<rect x="349.3" y="357.7" class="st83" width="0.1" height="5.6"/>
				<rect x="349.4" y="357.7" class="st84" width="0.1" height="5.6"/>
				<rect x="349.4" y="357.7" class="st85" width="0.1" height="5.6"/>
				<rect x="349.5" y="357.7" class="st86" width="0.1" height="5.6"/>
				<rect x="349.6" y="357.7" class="st87" width="0.1" height="5.6"/>
				<rect x="349.6" y="357.7" class="st88" width="0.1" height="5.6"/>
				<rect x="349.7" y="357.7" class="st89" width="0.1" height="5.6"/>
				<rect x="349.7" y="357.7" class="st90" width="0.1" height="5.6"/>
				<rect x="349.8" y="357.7" class="st91" width="0.1" height="5.6"/>
				<rect x="349.8" y="357.7" class="st92" width="0.1" height="5.6"/>
				<rect x="349.9" y="357.7" class="st93" width="0.1" height="5.6"/>
				<rect x="350" y="357.7" class="st94" width="0.1" height="5.6"/>
				<rect x="350" y="357.7" class="st95" width="0.1" height="5.6"/>
				<rect x="350.1" y="357.7" class="st96" width="0.1" height="5.6"/>
				<rect x="350.1" y="357.7" class="st97" width="0.1" height="5.6"/>
				<path class="st97" d="M350.2,363.3v-5.6V363.3z"/>
			</g>
		</g>
	</g>
</g>
<g>
	<g>
		<g>
			<path class="st98" d="M349.1,359c0,0-1.5,0.8-1.4,1.1c0.1,0.3,0.3,0.3,0.3,0.3l-0.5,0.6c0,0-0.1,0.6,0.6,0.5c0,0-0.1,0.5,0.5,0.4
				c0,0,0.1,0.4,0.4,0.4c0.3,0,1.3-0.6,1.3-0.6s0.1-0.2-0.1-0.5c0,0,0.2-0.4-0.1-0.7c0,0,0.1-0.3-0.2-0.6c0,0,0.1-0.7-0.5-0.9
				C349.2,359,349.1,359,349.1,359z"/>
		</g>
	</g>
</g>
<g>
	<g>
		<g>
			<g>
				<defs>
					<polygon id="SVGID_5_" points="344.6,358.8 350,357.8 349.1,353.5 343.8,354.7 					"/>
				</defs>
				<clipPath id="SVGID_6_">
					<use xlink:href="#SVGID_5_"  style="overflow:visible;"/>
				</clipPath>
				<path class="st99" d="M343.8,353.5v5.4V353.5z"/>
				<rect x="343.8" y="353.5" class="st99" width="0.1" height="5.4"/>
				<rect x="343.9" y="353.5" class="st100" width="0.1" height="5.4"/>
				<rect x="344" y="353.5" class="st101" width="0.1" height="5.4"/>
				<rect x="344.1" y="353.5" class="st102" width="0.1" height="5.4"/>
				<rect x="344.2" y="353.5" class="st103" width="0.1" height="5.4"/>
				<rect x="344.3" y="353.5" class="st104" width="0.1" height="5.4"/>
				<rect x="344.4" y="353.5" class="st105" width="0.1" height="5.4"/>
				<rect x="344.5" y="353.5" class="st106" width="0.1" height="5.4"/>
				<rect x="344.6" y="353.5" class="st107" width="0.1" height="5.4"/>
				<rect x="344.7" y="353.5" class="st108" width="0.1" height="5.4"/>
				<rect x="344.8" y="353.5" class="st109" width="0.1" height="5.4"/>
				<rect x="344.9" y="353.5" class="st110" width="0.1" height="5.4"/>
				<rect x="344.9" y="353.5" class="st111" width="0.1" height="5.4"/>
				<rect x="345" y="353.5" class="st112" width="0.1" height="5.4"/>
				<rect x="345.1" y="353.5" class="st113" width="0.1" height="5.4"/>
				<rect x="345.2" y="353.5" class="st114" width="0.1" height="5.4"/>
				<rect x="345.3" y="353.5" class="st115" width="0.1" height="5.4"/>
				<rect x="345.4" y="353.5" class="st116" width="0.1" height="5.4"/>
				<rect x="345.5" y="353.5" class="st117" width="0.1" height="5.4"/>
				<rect x="345.6" y="353.5" class="st118" width="0.1" height="5.4"/>
				<rect x="345.7" y="353.5" class="st119" width="0.1" height="5.4"/>
				<rect x="345.8" y="353.5" class="st120" width="0.1" height="5.4"/>
				<rect x="345.9" y="353.5" class="st121" width="0.1" height="5.4"/>
				<rect x="346" y="353.5" class="st122" width="0.1" height="5.4"/>
				<rect x="346.1" y="353.5" class="st123" width="0.1" height="5.4"/>
				<rect x="346.2" y="353.5" class="st124" width="0.1" height="5.4"/>
				<rect x="346.3" y="353.5" class="st125" width="0.1" height="5.4"/>
				<rect x="346.4" y="353.5" class="st126" width="0.1" height="5.4"/>
				<rect x="346.5" y="353.5" class="st127" width="0.1" height="5.4"/>
				<rect x="346.6" y="353.5" class="st128" width="0.1" height="5.4"/>
				<rect x="346.7" y="353.5" class="st129" width="0.1" height="5.4"/>
				<rect x="346.7" y="353.5" class="st130" width="0.1" height="5.4"/>
				<rect x="346.8" y="353.5" class="st131" width="0.1" height="5.4"/>
				<rect x="346.9" y="353.5" class="st132" width="0.1" height="5.4"/>
				<rect x="347" y="353.5" class="st133" width="0.1" height="5.4"/>
				<rect x="347.1" y="353.5" class="st134" width="0.1" height="5.4"/>
				<rect x="347.2" y="353.5" class="st135" width="0.1" height="5.4"/>
				<rect x="347.3" y="353.5" class="st136" width="0.1" height="5.4"/>
				<rect x="347.4" y="353.5" class="st137" width="0.1" height="5.4"/>
				<rect x="347.5" y="353.5" class="st138" width="0.1" height="5.4"/>
				<rect x="347.6" y="353.5" class="st139" width="0.1" height="5.4"/>
				<rect x="347.7" y="353.5" class="st140" width="0.1" height="5.4"/>
				<rect x="347.8" y="353.5" class="st141" width="0.1" height="5.4"/>
				<rect x="347.9" y="353.5" class="st142" width="0.1" height="5.4"/>
				<rect x="348" y="353.5" class="st143" width="0.1" height="5.4"/>
				<rect x="348.1" y="353.5" class="st144" width="0.1" height="5.4"/>
				<rect x="348.2" y="353.5" class="st145" width="0.1" height="5.4"/>
				<rect x="348.3" y="353.5" class="st146" width="0.1" height="5.4"/>
				<rect x="348.4" y="353.5" class="st147" width="0.1" height="5.4"/>
				<rect x="348.5" y="353.5" class="st148" width="0.1" height="5.4"/>
				<rect x="348.6" y="353.5" class="st149" width="0.1" height="5.4"/>
				<rect x="348.6" y="353.5" class="st150" width="0.1" height="5.4"/>
				<rect x="348.7" y="353.5" class="st151" width="0.1" height="5.4"/>
				<rect x="348.8" y="353.5" class="st152" width="0.1" height="5.4"/>
				<rect x="348.9" y="353.5" class="st153" width="0.1" height="5.4"/>
				<rect x="349" y="353.5" class="st154" width="0.1" height="5.4"/>
				<rect x="349.1" y="353.5" class="st155" width="0.1" height="5.4"/>
				<rect x="349.2" y="353.5" class="st156" width="0.1" height="5.4"/>
				<rect x="349.3" y="353.5" class="st157" width="0.1" height="5.4"/>
				<rect x="349.4" y="353.5" class="st158" width="0.1" height="5.4"/>
				<rect x="349.5" y="353.5" class="st159" width="0.1" height="5.4"/>
				<rect x="349.6" y="353.5" class="st160" width="0.1" height="5.4"/>
				<rect x="349.7" y="353.5" class="st161" width="0.1" height="5.4"/>
				<rect x="349.8" y="353.5" class="st162" width="0.1" height="5.4"/>
				<rect x="349.9" y="353.5" class="st163" width="0.1" height="5.4"/>
				<path class="st163" d="M350,358.8v-5.4V358.8z"/>
			</g>
		</g>
	</g>
</g>
<g>
	<g>
		<g>
			<path class="st11" d="M346.4,360.2c0,0,1.2,0,1.8,0.2c0.1,0.1,0.3,0.1,0.3,0.3c0,0.2-0.2,0.4-0.7,0.4c-0.5,0-1.2,0.3-1.2,0.3
				S346.1,361.3,346.4,360.2z"/>
		</g>
	</g>
</g>
<g>
	<g>
		<g>
			<path class="st8" d="M334.7,402.4c-0.1,0.5-0.2,1-0.3,1.4l-3-8C331.8,396.6,334.7,402.4,334.7,402.4z"/>
		</g>
	</g>
</g>
<g>
	<path class="st15" d="M168,306.8h-47.8c-3.5,0-6.4-2.9-6.4-6.4v-75.5c0-3.5,2.9-6.4,6.4-6.4H168c3.5,0,6.4,2.9,6.4,6.4v75.5
		C174.3,303.9,171.5,306.8,168,306.8z"/>
</g>
<g>
	<g>
		<g>
			<g>
				<g>
					<rect x="164.8" y="275.5" class="st164" width="3.1" height="23.9"/>
				</g>
			</g>
		</g>
	</g>
	<g>
		<g>
			<g>
				<g>
					<rect x="158.6" y="278.2" class="st164" width="3.1" height="21.2"/>
				</g>
			</g>
		</g>
	</g>
	<g>
		<g>
			<g>
				<g>
					<rect x="151.8" y="281.7" class="st164" width="3.1" height="17.7"/>
				</g>
			</g>
		</g>
	</g>
	<g>
		<g>
			<g>
				<g>
					<rect x="144.9" y="286.1" class="st164" width="3.1" height="13.3"/>
				</g>
			</g>
		</g>
	</g>
	<g>
		<g>
			<g>
				<polygon class="st164" points="126.2,283.2 125.5,283 131.4,266.4 144.2,263 148.9,244.7 158.8,240.4 161,226.2 161.7,226.3 
					159.4,240.9 149.5,245.2 144.8,263.6 132,267 				"/>
			</g>
		</g>
	</g>
	<g>
		<g>
			<path class="st165" d="M146,262c0.7,0.8,0.6,2-0.3,2.7c-0.8,0.7-2,0.6-2.7-0.3c-0.7-0.8-0.6-2,0.3-2.7
				C144.1,261.1,145.4,261.2,146,262z"/>
		</g>
	</g>
	<g>
		<g>
			<path class="st164" d="M146,265c-1,0.8-2.4,0.7-3.2-0.3c-0.8-1-0.7-2.4,0.3-3.2c1-0.8,2.4-0.7,3.2,0.3
				C147.1,262.8,147,264.2,146,265z M143.5,262c-0.7,0.5-0.8,1.5-0.2,2.2c0.5,0.7,1.5,0.8,2.2,0.2c0.7-0.5,0.8-1.5,0.2-2.2
				C145.2,261.6,144.2,261.5,143.5,262z"/>
		</g>
	</g>
	<g>
		<g>
			<path class="st165" d="M150.7,243.9c0.7,0.8,0.6,2-0.3,2.7c-0.8,0.7-2,0.6-2.7-0.3c-0.7-0.8-0.6-2,0.3-2.7
				C148.8,242.9,150,243.1,150.7,243.9z"/>
		</g>
	</g>
	<g>
		<g>
			<path class="st164" d="M150.7,246.9c-1,0.8-2.4,0.7-3.2-0.3c-0.8-1-0.7-2.4,0.3-3.2c1-0.8,2.4-0.7,3.2,0.3
				C151.8,244.6,151.6,246.1,150.7,246.9z M148.2,243.9c-0.7,0.5-0.8,1.5-0.2,2.2c0.5,0.7,1.5,0.8,2.2,0.2c0.7-0.5,0.8-1.5,0.2-2.2
				C149.9,243.4,148.9,243.3,148.2,243.9z"/>
		</g>
	</g>
	<g>
		<g>
			<path class="st165" d="M160.5,239.4c0.7,0.8,0.6,2-0.3,2.7c-0.8,0.7-2,0.6-2.7-0.3c-0.7-0.8-0.6-2,0.3-2.7
				C158.6,238.4,159.8,238.6,160.5,239.4z"/>
		</g>
	</g>
	<g>
		<g>
			<path class="st164" d="M160.4,242.4c-1,0.8-2.4,0.7-3.2-0.3c-0.8-1-0.7-2.4,0.3-3.2c1-0.8,2.4-0.7,3.2,0.3
				C161.5,240.1,161.4,241.6,160.4,242.4z M158,239.4c-0.7,0.5-0.8,1.5-0.2,2.2c0.5,0.7,1.5,0.8,2.2,0.2c0.7-0.5,0.8-1.5,0.2-2.2
				C159.6,238.9,158.7,238.8,158,239.4z"/>
		</g>
	</g>
	<g>
		<g>
			<path class="st165" d="M133.2,265.6c0.7,0.8,0.6,2-0.3,2.7c-0.8,0.7-2,0.6-2.7-0.3s-0.6-2,0.3-2.7
				C131.3,264.7,132.6,264.8,133.2,265.6z"/>
		</g>
	</g>
	<g>
		<g>
			<path class="st164" d="M133.2,268.6c-1,0.8-2.4,0.7-3.2-0.3c-0.8-1-0.7-2.4,0.3-3.2c1-0.8,2.4-0.7,3.2,0.3
				C134.3,266.4,134.2,267.8,133.2,268.6z M130.8,265.6c-0.7,0.5-0.8,1.5-0.2,2.2c0.5,0.7,1.5,0.8,2.2,0.2c0.7-0.5,0.8-1.5,0.2-2.2
				C132.4,265.2,131.4,265.1,130.8,265.6z"/>
		</g>
	</g>
	<g>
		<g>
			<g>
				<g>
					<path class="st166" d="M138.1,247.5h-16.5c-0.8,0-1.4-0.6-1.4-1.4v-1.2c0-0.8,0.6-1.4,1.4-1.4h16.5c0.8,0,1.4,0.6,1.4,1.4v1.2
						C139.5,246.9,138.8,247.5,138.1,247.5z"/>
				</g>
			</g>
		</g>
	</g>
	<g>
		<g>
			<g>
				<g>
					<path class="st166" d="M138.1,240.5h-16.5c-0.8,0-1.4-0.6-1.4-1.4v-1.2c0-0.8,0.6-1.4,1.4-1.4h16.5c0.8,0,1.4,0.6,1.4,1.4v1.2
						C139.5,239.9,138.8,240.5,138.1,240.5z"/>
				</g>
			</g>
		</g>
	</g>
</g>
<g>
	<path class="st12" d="M106.3,250.7c0,0-0.6,5.5,0.5,6.9c0,0-2.7-0.6-3.3-1.5S106.3,250.7,106.3,250.7z"/>
</g>
<g>
	<g>
		<path class="st11" d="M123.2,268.4c0,0,1-0.7,1.1-0.8c0.2-0.1,0.7-0.1,1.2,0c0.6,0.1,1.3,0.4,1.4,0.5c0,0.1,0.1,0.2,0.1,0.4
			c0,0.3-0.2,0.4-0.2,0.4s0.1,0.3-0.1,0.6c0,0,0.1,0.3-0.2,0.5c0,0,0.1,0.3-0.2,0.4c0,0-0.5,0-0.7,0c-0.2,0-1.2-0.1-2.2-0.3
			C123.4,270.2,122.3,270,123.2,268.4z"/>
	</g>
</g>
<g>
	<g>
		<path class="st26" d="M124.8,268.8c0,0-0.3,0.5-0.5,0.6c-0.2,0.1,0.8,1.1,0.8,1.1S125.5,269.2,124.8,268.8z"/>
	</g>
</g>
<g>
	<g>
		<path class="st11" d="M122.6,268.5c0,0,0.6-0.1,1-0.2c0.4-0.2-0.1,1.9-0.1,1.9s-0.9-0.6-1.5-0.7
			C121.4,269.5,122.6,268.5,122.6,268.5z"/>
	</g>
</g>
<g>
	<g>
		<path class="st167" d="M97.1,324.2c0,0,1.9,2.8,2.6,3.4c0,0,1.3,0.7,1.4,1.3c0.1,1.1,0.1,1.7-1.6,1.7c-1.8,0-2.9,0-3.2-1.1
			c-0.3-1.1-0.9-1.9-0.9-1.9l-0.1,2.8h-0.4c0,0-0.2-2.8-0.2-3.2c0-0.4-0.3-1.9,0.6-2.6C96,323.9,97.1,324.2,97.1,324.2z"/>
	</g>
</g>
<g>
	<g>
		<path class="st167" d="M99.9,327.8c0,0-1,0.3-2.1,0c-1.1-0.3-2.2-3-2.6-3.2l-0.3-1.1h2.2c0,0,0,0.8,0.4,1.5
			C97.9,325.6,99.9,327.8,99.9,327.8z"/>
	</g>
</g>
<g>
	<g>
		<path class="st167" d="M109.6,323.2c0,0,0.3,0.7,0.8,1.4c0.4,0.5,1.6,2.7,2.2,2.8c0.5,0.1,2.2,0.4,2.4,1.4
			c0.1,0.9,0.2,1.6-1.4,1.7c-1.7,0.1-2.8,0.2-3.6-1c-0.8-1.2-2.1-2-2.1-2v3.1h-0.6c0,0-0.3-3.2-0.5-3.4c-0.2-0.2-0.6-2.7,0.9-3.9
			C109.3,321.9,109.6,323.2,109.6,323.2z"/>
	</g>
</g>
<g>
	<g>
		<path class="st167" d="M112.6,327.4c0,0-1.5,0.4-2.1,0c-0.6-0.4-2.5-3.7-3.2-3.9c0,0,0.6-1.3,2.2-0.3
			C109.6,323.2,112.2,326.8,112.6,327.4z"/>
	</g>
</g>
<g>
	<g>
		<path class="st0" d="M96.2,277.5c0,0-2.1,2.7-2.7,6c-0.6,3.2,0.3,14.2,0.3,15.8c0,1.6-1.4,6.6-1.1,9.6c0.3,3,1.9,15.6,1.9,15.6
			l3.6-0.1c0,0-0.7-13.6-0.5-14.9c0.2-1.3,0.8-6.7,0.9-7.2c0.1-0.5,4.2-14.3,4.2-16.7S101.3,273.6,96.2,277.5z"/>
	</g>
</g>
<g>
	<g>
		<path class="st0" d="M106.8,278.5c0,0,3.5,13.2,3.9,15c0.4,1.8,1.2,4.2,1.2,4.6c0,0.3-0.4,6-0.4,6l-1,19.2h-3.6
			c0,0-1.2-12.2-1.4-14.7c-0.2-2.5,1.3-6.3,1-7.3c-0.4-1-6-13.1-6-13.1S96.1,274.7,106.8,278.5z"/>
	</g>
</g>
<g>
	<g>
		<path class="st23" d="M105.7,258.8c0,0,1.4,0.1,2.4,1.3c1,1.1,2,2.9,2.3,3.5c0.3,0.6,4.1,6.1,4.3,6.3c0.2,0.1,1.9-0.3,3.2-0.4
			c2.2-0.2,5.5-1.3,5.5-1.3l0.5,2.5c0,0-8.1,2.6-9.9,2.1c-2.3-0.6-7.5-7.3-7.5-7.3S102.6,260.8,105.7,258.8z"/>
	</g>
</g>
<g>
	<g>
		<path class="st23" d="M103.3,257.8c0,0,1.8,0.8,2.4,1c0.6,0.1,3,3.3,3.5,4.4c0.4,1.1,0,2.9-0.9,4.9c-0.9,2,0,2.7-0.4,4.7
			c-0.4,2-0.4,7.5-0.3,8.6c0.1,1.1-11.5,3.2-13.8,1.2c0,0,1.6-5.2,3.4-7.1c0.4-0.4,0.4-3.2,0.1-3.9c-0.3-0.7-3.4-5.9-3.4-5.9
			s-0.2-5.3,1.1-6.3c1.2-0.9,4.4-1.2,4.9-1.4C100.5,257.7,102.1,257.6,103.3,257.8z"/>
	</g>
</g>
<g>
	<g>
		<path class="st168" d="M103.9,261.8l1.1-1.3l-0.9-3.4C104,257.1,103.7,259,103.9,261.8z"/>
	</g>
</g>
<g>
	<g>
		<path class="st11" d="M97.1,258.8c0,0-2.3-0.6-3.6,1.8c-1.3,2.5-1,3.8-1.3,5c-0.3,1.1-1.5,8.6-1.6,8.9c-0.1,0.3-1.2,4.1-1.1,5.3
			c0.1,1.2,1.2,10,1.2,10.3c0,0.3,2.1-0.3,2.1-0.3s-0.1-9,0-9.8c0.1-0.7,0.1-4.7,0.7-5.7c0.6-1,1.9-7.2,2.2-7.8
			C96.1,265.9,99,259.6,97.1,258.8z"/>
	</g>
</g>
<g>
	<g>
		<path class="st11" d="M104.2,255.7c0,0-0.4,3.3-0.3,4.4c0,0-1.9,1.9-4-2.2c0,0,0.9-1.7,0.2-3.9
			C99.5,251.7,104.2,255.7,104.2,255.7z"/>
	</g>
</g>
<g>
	<g>
		<polygon class="st11" points="103.9,260.1 103.9,261.8 101.9,260 		"/>
	</g>
</g>
<g>
	<g>
		<polygon class="st168" points="103.9,261.8 103,260.7 100,257.7 98.9,258.2 		"/>
	</g>
</g>
<g>
	<g>
		<polygon class="st169" points="105,260.5 106.3,260.9 104,257.1 		"/>
	</g>
</g>
<g>
	<g>
		<polygon class="st169" points="103,260.7 101.7,262.7 98.8,258.1 100.1,257.5 		"/>
	</g>
</g>
<g>
	<path class="st168" d="M109.4,268.8c0,0,0.4-3,0-4.8c0,0-0.3,1.5-0.9,3.7L109.4,268.8z"/>
</g>
<g>
	<path class="st168" d="M95.5,268.4c0,0,1.2-4.1,1.3-4.3c0,0-0.1,3.8-0.6,5.6C96.2,269.7,95.8,268.9,95.5,268.4z"/>
</g>
<g>
	<polygon class="st170" points="141.6,247.8 122.1,272.4 122.8,272.9 	"/>
</g>
<g>
	<g>
		<path class="st98" d="M126.8,268.1c0,0-1.5-0.1-1.5,0.1c-0.1,0.2,0.1,0.3,0.1,0.3l-0.6,0.2c0,0-0.3,0.4,0.2,0.6
			c0,0-0.3,0.3,0.2,0.5c0,0-0.1,0.3,0.1,0.4c0.2,0.1,1.2,0.2,1.2,0.2s0.2-0.1,0.2-0.4c0,0,0.3-0.2,0.2-0.5c0,0,0.2-0.2,0.1-0.6
			c0,0,0.5-0.5,0.1-0.9C126.9,268.1,126.8,268.1,126.8,268.1z"/>
	</g>
</g>
<g>
	<g>
		<path class="st11" d="M124.4,267.6c0,0,0.9,0.5,1.2,1c0.1,0.1,0.1,0.2,0.1,0.3c-0.1,0.1-0.3,0.1-0.7-0.1c-0.4-0.2-1-0.3-1-0.3
			S123.6,268.3,124.4,267.6z"/>
	</g>
</g>
<g>
	<path class="st11" d="M102.7,244.5c0,0,3.3-0.1,3.9,3.8c0.6,3.9-0.8,7.3-1.3,7.9c-0.6,0.6-3.8,0.1-4.6-1.9c-0.8-2-1.9-3.5-1.7-5.3
		C99,247.3,98.6,244.5,102.7,244.5z"/>
</g>
<g>
	<path class="st12" d="M106.7,249.8c0,0,0.9-4.9-3.5-5.7c-4.4-0.9-5.9,2.1-6.3,3.9c-0.4,1.8,0.1,6.8,0.1,6.8s2.9,2.6,4.7,3.2
		c0,0-1.5-5.3-0.9-9.2c0,0,3.6,0.6,5.9,0C106.6,248.8,106.7,249.6,106.7,249.8z"/>
</g>
<g>
	<path class="st13" d="M104.1,256.4c0,0-1.1,0-2.7-1c0,0,1.1,1.4,2.6,1.9C104,257.3,104.1,256.6,104.1,256.4z"/>
</g>
<g>
	
		<rect x="85.5" y="282.6" transform="matrix(0.9869 -0.1612 0.1612 0.9869 -45.1081 18.5792)" class="st171" width="12.9" height="9.5"/>
</g>
<g>
	<g>
		<g>
			<g>
				<g>
					<g>
						<path class="st11" d="M90.3,293c0,0-0.2-0.3-0.2-0.5c0,0,0-0.3,0-0.6c0-0.1,0-0.1,0-0.2c0-0.2-0.2-0.6-0.1-1
							c0-0.5,0.6-2.4,0.6-2.4l1.1,0l1.1-0.1c0,0,1.3,2.4,1.3,2.9c0,0,0,0.1,0,0.1c0,0.4-0.2,0.6-0.2,0.8c0,0.1-0.2,0.7-0.4,0.8
							c-0.3,0.1-0.5,0.1-0.7,0c0,0-0.5,0.2-0.9,0.1c0,0-0.5,0.2-0.9,0C91.1,293,90.6,293.2,90.3,293z"/>
					</g>
				</g>
			</g>
		</g>
	</g>
</g>
<g>
	<g>
		<path class="st23" d="M97.1,258.8c0,0-2.3-0.6-3.6,1.8c-1.3,2.5-1.3,3.6-1.5,4.8c-0.2,1.1-1.7,8-1.8,8.3c-0.1,0.3-0.6,4.6-0.6,6.1
			c0,1.2,0.2,8.9,0.2,9.2c0,0.3,3.6-0.5,3.6-0.5s-0.4-7.1-0.3-7.9c0.1-0.7,0.2-4.5,0.6-5.6c0.4-1.3,2.1-7.8,2.4-8.4
			C96.4,266,99,259.6,97.1,258.8z"/>
	</g>
</g>
<g>
	<g>
		<path class="st172" d="M213.8,325.8l0.2-2.2c0,0-3.1,0-3.4,0.2c0,0,0.3,1.8,0.3,2.1C210.9,326.2,213.8,325.8,213.8,325.8z"/>
	</g>
</g>
<g>
	<g>
		<path class="st173" d="M208.6,330.4c3.7,0,5.4,0.2,5.8-0.4c0.4-0.6-0.6-4.4-0.6-4.4s-0.9,0.3-3,0.1c0,0-0.9,1.1-1.8,1.6
			c-0.9,0.5-2.3,0.7-2.8,1.2C205.9,328.8,204.9,330.4,208.6,330.4z"/>
	</g>
</g>
<g>
	<g>
		<path class="st172" d="M193.1,325.8l0.2-2.2c0,0-3.1,0-3.4,0.2c0,0,0.3,1.8,0.3,2.1C190.3,326.2,193.1,325.8,193.1,325.8z"/>
	</g>
</g>
<g>
	<g>
		<path class="st173" d="M187.9,330.4c3.7-0.1,5.4,0.2,5.8-0.4c0.4-0.6-0.6-4.4-0.6-4.4s-0.8,0.3-3,0.1c0,0-0.9,1.1-1.8,1.6
			c-0.9,0.5-4.1,0.9-4.7,1.4C183.4,329,182.7,330.5,187.9,330.4z"/>
	</g>
</g>
<g>
	<g>
		<path class="st5" d="M209.6,276.4c0,0,1.5,4.6,1.3,8.5c-0.2,3.9,0.8,8.2,1.2,12.3c0.5,4.6,2.3,15.4,2.4,17.9
			c0.1,2.4-0.3,10.3-0.3,10.3l-3.7,0.1c0,0-3.1-18.9-3.9-20.9c-0.8-1.9-4.8-15.7-5-17.3C201.5,285.7,209.6,276.4,209.6,276.4z"/>
	</g>
</g>
<g>
	<g>
		<path class="st5" d="M193.9,277.2c0,0-2,10.8-2.3,13.2c-0.3,2.4-0.4,11.6-0.6,13.1c-0.1,1.5-0.9,19.7-1.6,21.9h4.8
			c0,0,3.6-13.2,3.6-19.5s2.8-13.6,4.6-17.7c1.8-4.1,6-4.2,7.1-11.9C209.6,276.4,195.5,274.8,193.9,277.2z"/>
	</g>
</g>
<g>
	<g>
		<path class="st11" d="M203.6,240.4c0,0-3.7-1.4-5.5,1.5c-1.7,2.9-1.6,8.6,0.3,9.3c1.9,0.7,4.7,0.3,5.7-1.4c1-1.8,1.8-4.4,1.8-6.1
			C205.9,241.8,204.6,240.9,203.6,240.4z"/>
	</g>
</g>
<g>
	<g>
		<path class="st11" d="M199.1,250.9c0,0,0.2,1-0.1,1.5c-0.3,0.5,4.7,0.5,4.7,0.5s0.4-2.6,1.2-4.9
			C205.6,245.8,199.1,250.9,199.1,250.9z"/>
	</g>
</g>
<g>
	<g>
		<path class="st174" d="M204.9,248c0,0-0.3,0.6-1.7,0.3c-1.4-0.2-3.1-2.1-3.7-2.3c-0.6-0.2-0.6-0.5-0.6-0.5l-0.4,0.5l-0.6,0
			c0,0,0.6-1.7-0.3-2.3c-0.9-0.7,0.9-5.4,5.4-3.8c0,0,3.2,0.6,3.4,2.6C206.6,244.6,205.6,247,204.9,248z"/>
	</g>
</g>
<g>
	<g>
		<path class="st175" d="M198.7,252.3c0,0,0-0.9,0.4-1c0.4-0.1,4.6-0.5,5.1-0.3v1.1C204.3,252.1,203.3,252.7,198.7,252.3z"/>
	</g>
</g>
<g>
	<g>
		<path class="st11" d="M198.9,244.8c0.1-0.3,0.9-1.3,1.2-0.3c0.3,1-0.5,2.4-0.9,2.2C198.8,246.7,198.7,245.7,198.9,244.8z"/>
	</g>
</g>
<g>
	<g>
		<path class="st0" d="M198.7,252.3c0,0-2.3,0.8-5,2c0,0-3.1,1.1-3.4,4.5c-0.2,1.8-2.1,11.4-2.5,12.2c-0.4,0.8-4.6,13.8-4.8,14.1
			c-0.1,0.3,3.5,1.8,3.7,1.7c0.2-0.1,4.1-11.9,4.5-12.7c0,0,2.2-7,2.3-8.1c0,0,0.1,3,0.2,3.8c0.1,0.8-2,17.1-1.9,17.6
			c0.1,0.5,9.6,1,13.4,0.6c3.8-0.4,6.9-1.3,6.9-1.3s-3-12.9-2.9-14.3c0.2-3.1,1.2-9,1.2-9l3.1,5.8l-4,10.2l0.9,3.1
			c0,0,7.4-11.2,7.6-12.2c0.2-1-0.4-2.3-0.8-3.2c-0.4-0.8-2.9-7.2-3.5-8.1c-0.6-0.9-1.6-4.5-4.1-5.5c-2-0.8-5.5-1.5-5.5-1.5
			L198.7,252.3z"/>
	</g>
</g>
<g>
	<g>
		
			<rect x="177.5" y="276.4" transform="matrix(0.9687 0.2484 -0.2484 0.9687 76.0492 -37.4585)" class="st176" width="17.9" height="12.5"/>
	</g>
</g>
<g>
	<g>
		<path class="st177" d="M181.6,287.7c0,0-0.5,0.8-0.7,1c-0.2,0.2,0.4,0.4,0.7,0.1C181.9,288.7,181.6,287.7,181.6,287.7z"/>
	</g>
</g>
<g>
	<g>
		<path class="st178" d="M185.2,290.5c0,0,0.3-0.3,0.4-0.5c0,0,0.1-0.4,0.2-0.6c0-0.1,0-0.2,0.1-0.2c0.1-0.2,0.3-0.6,0.4-1.1
			c0.1-0.5,0.3-2.7,0.3-2.7l-1.3-0.3l-1.1-0.2c0,0-2.3,2.3-2.5,2.8c0,0,0,0.1,0,0.1c-0.1,0.4,0,0.7,0,0.9c0,0.1,0,0.9,0.2,1
			c0.3,0.2,0.5,0.2,0.7,0.2c0,0,0.5,0.4,0.9,0.3c0,0,0.5,0.4,1,0.2C184.4,290.3,184.9,290.7,185.2,290.5z"/>
	</g>
</g>
<g>
	<g>
		<path class="st0" d="M190.5,276.4c0,0-3.1,9.3-3.7,10.3c0,0-2.3-0.5-3.7-1.7l3.4-10.1L190.5,276.4z"/>
	</g>
</g>
<g>
	<path class="st179" d="M468.8,291c0,0,11.5-33.6-10.4-44c-21.9-10.4-40.4,4.6-43.9,12.8c-3.5,8.1-2.6,23,0.4,33.3
		c3,10.3,2.6,26.1-3.9,31.3c-6.5,5.3-14.6,14-14.2,31.8c0.2,11,43.4-28.2,43.4-28.2L468.8,291z"/>
</g>
<g>
	<path class="st15" d="M438.1,330.9c0,0-18,4-25.1,8.2c-7.1,4.2-23,23.3-23,31.6c0,8.2,69.3,15.9,69.3,15.9l13.1,47.9
		c0,0,35-8.5,39.2-15.6c4.2-7.1-13.3-57.9-16.3-68.1c-3-10.5-15.6-17.8-30.2-19.8C450.6,328.9,438.1,330.9,438.1,330.9z"/>
</g>
<g>
	<path class="st11" d="M463.9,330.8c0,0-0.4,21.8-17.7,22.5c-17.3,0.6-13.7-20.9-13.7-20.9S445.1,327.2,463.9,330.8z"/>
</g>
<g>
	<path class="st179" d="M471.2,264.9c0,0,6.1,35.1-11.3,60.5C441.8,351.6,471.2,264.9,471.2,264.9z"/>
</g>
<g>
	<path class="st11" d="M460.2,315.3c0,0-1.2,10.4,0.8,16.9c2,6.5-26.5,6.7-26.5,1.3c0-6.1,2.9-11.1,0.2-21.5
		C432,301.7,460.2,315.3,460.2,315.3z"/>
</g>
<g>
	<path class="st13" d="M438.1,316.7c0,0,9,9.4,20.5,1c0,0-1,6-9.2,6.8C441.1,325.2,438.1,316.7,438.1,316.7z"/>
</g>
<g>
	<path class="st11" d="M449.4,252.7c0,0,22.7,6.7,19.5,38.3c-3.2,31.5-18.1,29.9-19.5,30.2c-1.4,0.2-19,1.4-24.6-36.9
		C419.2,246,449.4,252.7,449.4,252.7z"/>
</g>
<g>
	<path class="st179" d="M443.5,266.8c0,0,12.4,19.7,25.4,24.2c0,0,7.1-33-22.2-39.9c-29.3-6.9-24.7,33.3-22.5,44
		C424.1,295.1,430.2,279.3,443.5,266.8z"/>
</g>
<g>
	<path class="st180" d="M426.9,263.8c0,0,6.5-12.6,17.5-13.2c11-0.6,17.5,9,17.5,9s-4.3-10.7-17.5-10.7
		C431.2,248.9,426.9,263.8,426.9,263.8z"/>
</g>
<g>
	<path class="st181" d="M431,397.5c0.9,4.5-1.2,8.7-4.6,9.4c-3.5,0.7-7-2.3-7.9-6.8c-0.9-4.5,1.2-8.7,4.6-9.4
		C426.6,390,430.1,393.1,431,397.5z"/>
</g>
<g>
	
		<rect x="469.7" y="427.3" transform="matrix(-1 -1.224647e-16 1.224647e-16 -1 958.4023 861.8437)" class="st0" width="18.9" height="7.2"/>
</g>
<g>
	<path class="st1" d="M410.9,219.3c-8.6,0-15.6-7-15.6-15.6c0-8.6,7-15.6,15.6-15.6s15.6,7,15.6,15.6
		C426.5,212.3,419.5,219.3,410.9,219.3z M410.9,189c-8.1,0-14.7,6.6-14.7,14.7c0,8.1,6.6,14.7,14.7,14.7c8.1,0,14.7-6.6,14.7-14.7
		C425.6,195.6,419,189,410.9,189z"/>
</g>
<g>
	<path class="st182" d="M135.5,378l0-1.3c2.6,0,5.3-0.1,7.9-0.2l0.1,1.3C140.9,377.9,138.2,378,135.5,378z M127.6,377.9
		c-2.6-0.1-5.3-0.2-8-0.4l0.1-1.3c2.7,0.2,5.3,0.3,7.9,0.4L127.6,377.9z M151.5,377.3l-0.1-1.3c2.6-0.2,5.3-0.5,7.9-0.8l0.2,1.3
		C156.8,376.8,154.1,377,151.5,377.3z M111.6,376.9c-2.7-0.3-5.4-0.6-7.9-1l0.2-1.3c2.5,0.4,5.2,0.8,7.8,1L111.6,376.9z
		 M167.3,375.3l-0.2-1.3c2.6-0.4,5.2-0.9,7.8-1.5l0.3,1.3C172.5,374.3,169.9,374.8,167.3,375.3z M95.8,374.3
		c-2.7-0.6-5.3-1.4-7.7-2.2l0.4-1.3c2.4,0.8,4.9,1.6,7.6,2.2L95.8,374.3z M183,372l-0.3-1.3c2.4-0.6,5-1.2,7.7-2l0.3,1.3
		C187.9,370.8,185.4,371.5,183,372z M80.7,369.1c-2.5-1.2-4.8-2.5-7-3.9l0.7-1.1c2.1,1.4,4.4,2.7,6.8,3.9L80.7,369.1z M198.4,368
		l-0.4-1.3c1.1-0.3,2.2-0.6,3.3-0.9c1.5-0.4,2.9-0.8,4.4-1.2l0.4,1.3c-1.4,0.4-2.9,0.8-4.4,1.2C200.6,367.3,199.5,367.7,198.4,368z
		 M267.6,366.9c-2.4-1.2-4.9-2.2-7.3-3l0.4-1.3c2.4,0.9,4.9,1.9,7.4,3.1L267.6,366.9z M213.7,363.7l-0.3-1.3
		c2.9-0.7,5.4-1.3,7.8-1.8l0.3,1.3C219.1,362.4,216.6,363,213.7,363.7z M252.7,361.6c-2.6-0.6-5.2-1-7.8-1.3l0.1-1.3
		c2.6,0.3,5.3,0.7,7.9,1.3L252.7,361.6z M229.2,360.6l-0.2-1.3c2.8-0.4,5.4-0.6,8-0.6l0,1.3C234.5,360.1,232,360.3,229.2,360.6z
		 M67.4,360.2c-2-1.8-3.8-3.9-5.4-6l1.1-0.8c1.5,2.1,3.3,4,5.2,5.8L67.4,360.2z M57.8,347.3c-1.2-2.4-2.1-4.9-2.9-7.5l1.3-0.4
		c0.7,2.6,1.7,5,2.8,7.3L57.8,347.3z M53.2,331.9c-0.3-2.6-0.5-5.3-0.5-8l1.3,0c0,2.7,0.2,5.3,0.5,7.9L53.2,331.9z M54.4,316
		l-1.3-0.1c0.3-2.6,0.7-5.3,1.2-7.9l1.3,0.3C55.1,310.8,54.7,313.4,54.4,316z M57.4,300.5l-1.3-0.4c1.3-4.7,2.6-7.5,2.6-7.6L60,293
		C60,293,58.8,295.9,57.4,300.5z"/>
</g>
<g>
	<path class="st182" d="M479.1,139.4c0,0-2.2-2-6.2-4.9l0.8-1.1c4,3,6.3,5,6.3,5L479.1,139.4z M466.4,129.9
		c-2.2-1.5-4.4-2.9-6.7-4.3l0.7-1.1c2.3,1.4,4.6,2.8,6.8,4.3L466.4,129.9z M452.8,121.7c-2.3-1.3-4.7-2.5-7.1-3.6l0.6-1.2
		c2.4,1.1,4.8,2.4,7.1,3.6L452.8,121.7z M438.5,114.9c-2.5-1-4.9-2-7.4-2.9l0.4-1.3c2.5,0.9,5,1.9,7.5,2.9L438.5,114.9z
		 M337.7,113.2l0-1.3c2.6-0.1,5.2-0.3,7.8-0.7l0.2,1.3C343,112.9,340.3,113.2,337.7,113.2z M329.6,112.8c-2.6-0.3-5.2-0.8-7.9-1.6
		l0.3-1.3c2.6,0.7,5.2,1.2,7.7,1.5L329.6,112.8z M353.5,110.7l-0.4-1.3c0.9-0.3,1.7-0.5,2.6-0.8c1.7-0.6,3.4-1.1,5-1.6l0.4,1.3
		c-1.7,0.5-3.3,1-5,1.5C355.3,110.1,354.4,110.4,353.5,110.7z M423.6,109.5c-2.5-0.8-5.1-1.4-7.7-2l0.3-1.3c2.6,0.6,5.2,1.3,7.7,2
		L423.6,109.5z M314.1,108.7c-2.3-0.9-4.7-2-7.3-3.2l0.6-1.2c2.6,1.2,4.9,2.3,7.2,3.2L314.1,108.7z M368.8,106.5l-0.3-1.3
		c2.6-0.5,5.3-1,7.9-1.3l0.2,1.3C374,105.5,371.4,105.9,368.8,106.5z M408.1,106c-2.6-0.4-5.3-0.8-7.8-1l0.1-1.3
		c2.6,0.3,5.3,0.6,7.9,1L408.1,106z M174.9,104.7l-0.7-1.1c2.3-1.5,4.6-2.9,6.8-4.2l0.7,1.1C179.4,101.8,177.2,103.2,174.9,104.7z
		 M384.5,104.5l-0.1-1.3c2.6-0.1,5.3-0.2,8-0.1l0,1.3C389.7,104.4,387.1,104.4,384.5,104.5z M299.7,101.9c-2.3-1.2-4.5-2.5-7-3.9
		l0.7-1.2c2.5,1.4,4.7,2.6,6.9,3.9L299.7,101.9z M188.5,96.5l-0.6-1.2c2.4-1.3,4.8-2.6,7.1-3.7l0.6,1.2
		C193.2,94,190.9,95.2,188.5,96.5z M285.8,94.1c-2.6-1.4-4.9-2.6-7-3.7l0.6-1.2c2.1,1.1,4.5,2.3,7.1,3.7L285.8,94.1z M202.7,89.5
		l-0.5-1.2c2.5-1.1,5-2.1,7.4-3l0.5,1.2C207.7,87.4,205.2,88.4,202.7,89.5z M271.6,87.1c-2.5-1.1-5-2-7.4-2.8l0.4-1.3
		c2.5,0.8,4.9,1.7,7.5,2.8L271.6,87.1z M217.6,84.1l-0.4-1.3c2.6-0.8,5.2-1.4,7.8-1.9l0.3,1.3C222.7,82.7,220.2,83.3,217.6,84.1z
		 M256.6,82.2c-2.6-0.6-5.2-1-7.8-1.3l0.1-1.3c2.6,0.3,5.3,0.7,7.9,1.3L256.6,82.2z M233.1,81l-0.1-1.3c2.7-0.3,5.4-0.4,8-0.4l0,1.3
		C238.4,80.6,235.7,80.7,233.1,81z"/>
</g>
<g>
	<g>
		<g>
			<g>
				<polygon class="st183" points="313.8,381.4 280.4,371.7 290.4,368.7 				"/>
			</g>
		</g>
	</g>
	<g>
		<g>
			<g>
				<polygon class="st184" points="313.8,381.4 301.3,368.9 293.6,370.5 				"/>
			</g>
		</g>
	</g>
	<g>
		<g>
			<g>
				<polygon class="st185" points="288.1,374 288.3,377.8 313.8,381.4 				"/>
			</g>
		</g>
	</g>
</g>
<g>
	<g>
		<g>
			<g>
				<polygon class="st183" points="145.9,126.8 175.3,110.3 165.1,109.7 				"/>
			</g>
		</g>
	</g>
	<g>
		<g>
			<g>
				<polygon class="st184" points="145.9,126.8 154.9,112.2 162.5,112 				"/>
			</g>
		</g>
	</g>
	<g>
		<g>
			<g>
				<polygon class="st185" points="168.5,114.1 169.1,117.8 145.9,126.8 				"/>
			</g>
		</g>
	</g>
</g>
<polygon class="st0" points="471.6,362.8 479.3,434.5 377.9,434.5 370.1,362.8 "/>
<g>
	<path class="st15" d="M476.9,432.1H374.5l-7.8-72.6h102.4L476.9,432.1z M375.3,431.2h100.6l-7.6-70.8H367.7L375.3,431.2z"/>
</g>
<g>
	<path class="st15" d="M420,398.4c2.1,4,6.4,5.9,9.6,4.2c3.1-1.7,3.9-6.3,1.8-10.3c-2.1-4-6.4-5.9-9.6-4.2
		C418.6,389.8,417.8,394.4,420,398.4z"/>
</g>
</svg>
